<?xml version="1.0" encoding="UTF-8"?>
<svg xmlns="http://www.w3.org/2000/svg" xmlns:xlink="http://www.w3.org/1999/xlink" width="375.242pt" height="184.048pt" viewBox="0 0 375.242 184.048">
<defs>
<g>
<g id="glyph-0-0">
<path d="M 2.875 -1.21875 L 2.875 -4.671875 C 2.875 -5.28125 2.875 -5.875 2.90625 -6.015625 C 2.90625 -6.046875 2.875 -6.0625 2.84375 -6.0625 C 2.28125 -5.71875 1.765625 -5.46875 0.890625 -5.0625 C 0.890625 -4.9375 0.953125 -4.859375 1.03125 -4.796875 C 1.484375 -4.984375 1.71875 -5.046875 1.90625 -5.046875 C 2.0625 -5.046875 2.109375 -4.8125 2.109375 -4.46875 L 2.109375 -1.21875 C 2.109375 -0.390625 1.828125 -0.34375 1.140625 -0.3125 C 1.078125 -0.25 1.078125 -0.046875 1.140625 0.015625 C 1.625 0.015625 1.96875 0 2.515625 0 C 2.984375 0 3.234375 0.015625 3.734375 0.015625 C 3.796875 -0.046875 3.796875 -0.25 3.734375 -0.3125 C 3.046875 -0.34375 2.875 -0.390625 2.875 -1.21875 Z M 2.875 -1.21875 "/>
</g>
<g id="glyph-0-1">
<path d="M 2.3125 -5.734375 C 2.484375 -5.734375 2.640625 -5.671875 2.765625 -5.5625 C 3.078125 -5.296875 3.34375 -4.546875 3.34375 -3.203125 C 3.34375 -2.296875 3.3125 -1.671875 3.171875 -1.15625 C 2.953125 -0.34375 2.46875 -0.25 2.28125 -0.25 C 1.359375 -0.25 1.25 -1.953125 1.25 -2.828125 C 1.25 -5.28125 1.859375 -5.734375 2.3125 -5.734375 Z M 2.265625 0.09375 C 3.046875 0.09375 4.203125 -0.671875 4.203125 -3.015625 C 4.203125 -4 3.96875 -4.859375 3.53125 -5.4375 C 3.265625 -5.765625 2.84375 -6.078125 2.3125 -6.078125 C 1.328125 -6.078125 0.390625 -4.90625 0.390625 -2.9375 C 0.390625 -1.859375 0.703125 -0.859375 1.25 -0.3125 C 1.546875 -0.03125 1.890625 0.09375 2.265625 0.09375 Z M 2.265625 0.09375 "/>
</g>
<g id="glyph-0-2">
<path d="M 0.609375 -4.671875 C 0.609375 -4.453125 0.796875 -4.28125 1 -4.28125 C 1.171875 -4.28125 1.46875 -4.453125 1.46875 -4.671875 C 1.46875 -4.75 1.453125 -4.8125 1.4375 -4.890625 C 1.421875 -4.953125 1.359375 -5.046875 1.359375 -5.125 C 1.359375 -5.375 1.609375 -5.734375 2.34375 -5.734375 C 2.703125 -5.734375 3.203125 -5.484375 3.203125 -4.53125 C 3.203125 -3.890625 2.984375 -3.375 2.390625 -2.765625 L 1.65625 -2.046875 C 0.671875 -1.046875 0.515625 -0.5625 0.515625 0.015625 C 0.515625 0.015625 1.03125 0 1.34375 0 L 3.09375 0 C 3.40625 0 3.875 0.015625 3.875 0.015625 C 4 -0.515625 4.09375 -1.25 4.109375 -1.5625 C 4.046875 -1.609375 3.921875 -1.625 3.8125 -1.609375 C 3.65625 -0.890625 3.484375 -0.640625 3.125 -0.640625 L 1.34375 -0.640625 C 1.34375 -1.125 2.03125 -1.796875 2.078125 -1.859375 L 3.09375 -2.828125 C 3.65625 -3.375 4.09375 -3.8125 4.09375 -4.5625 C 4.09375 -5.640625 3.203125 -6.078125 2.40625 -6.078125 C 1.296875 -6.078125 0.609375 -5.265625 0.609375 -4.671875 Z M 0.609375 -4.671875 "/>
</g>
<g id="glyph-0-3">
<path d="M 2.140625 -5.734375 C 2.578125 -5.734375 2.96875 -5.46875 2.96875 -4.828125 C 2.96875 -4.328125 2.390625 -3.5625 1.40625 -3.421875 L 1.453125 -3.109375 C 1.625 -3.125 1.796875 -3.125 1.9375 -3.125 C 2.5 -3.125 3.234375 -2.96875 3.234375 -1.84375 C 3.234375 -0.515625 2.359375 -0.25 2 -0.25 C 1.5 -0.25 1.40625 -0.484375 1.28125 -0.65625 C 1.1875 -0.796875 1.0625 -0.921875 0.859375 -0.921875 C 0.640625 -0.921875 0.4375 -0.734375 0.4375 -0.5625 C 0.4375 -0.171875 1.28125 0.09375 1.875 0.09375 C 3.0625 0.09375 4.109375 -0.671875 4.109375 -1.984375 C 4.109375 -3.078125 3.296875 -3.453125 2.71875 -3.5625 L 2.703125 -3.578125 C 3.515625 -3.953125 3.75 -4.375 3.75 -4.890625 C 3.75 -5.1875 3.671875 -5.4375 3.4375 -5.6875 C 3.21875 -5.90625 2.875 -6.078125 2.359375 -6.078125 C 0.890625 -6.078125 0.46875 -5.125 0.46875 -4.796875 C 0.46875 -4.65625 0.5625 -4.453125 0.8125 -4.453125 C 1.15625 -4.453125 1.203125 -4.78125 1.203125 -4.96875 C 1.203125 -5.609375 1.890625 -5.734375 2.140625 -5.734375 Z M 2.140625 -5.734375 "/>
</g>
<g id="glyph-0-4">
<path d="M 2.703125 -5.046875 L 2.703125 -2.1875 L 0.796875 -2.1875 C 1.3125 -3 2.015625 -4.109375 2.703125 -5.046875 Z M 4.28125 -2.1875 L 3.453125 -2.1875 L 3.453125 -5.09375 C 3.453125 -5.59375 3.453125 -5.984375 3.484375 -6.0625 L 3.453125 -6.078125 L 3.140625 -6.078125 C 3.078125 -6.078125 3.015625 -6.015625 2.984375 -5.96875 C 2.359375 -5.1875 1.1875 -3.5625 0.28125 -2.140625 C 0.3125 -1.984375 0.375 -1.71875 0.671875 -1.71875 L 2.703125 -1.71875 L 2.703125 -0.796875 C 2.703125 -0.34375 2.328125 -0.34375 1.890625 -0.3125 C 1.828125 -0.25 1.828125 -0.046875 1.890625 0.015625 C 2.21875 0.015625 2.609375 0 3.078125 0 C 3.453125 0 3.84375 0.015625 4.15625 0.015625 C 4.21875 -0.046875 4.21875 -0.25 4.15625 -0.3125 C 3.671875 -0.34375 3.453125 -0.328125 3.453125 -0.796875 L 3.453125 -1.71875 L 4.140625 -1.71875 C 4.28125 -1.71875 4.4375 -1.90625 4.4375 -2.03125 C 4.4375 -2.125 4.390625 -2.1875 4.28125 -2.1875 Z M 4.28125 -2.1875 "/>
</g>
<g id="glyph-0-5">
<path d="M 3.1875 -1.890625 C 3.1875 -0.9375 2.6875 -0.234375 2.078125 -0.234375 C 1.703125 -0.234375 1.578125 -0.484375 1.421875 -0.6875 C 1.296875 -0.859375 1.125 -1 0.921875 -1 C 0.734375 -1 0.53125 -0.84375 0.53125 -0.640625 C 0.53125 -0.234375 1.390625 0.109375 1.953125 0.109375 C 3.1875 0.109375 4.0625 -0.8125 4.0625 -2.0625 C 4.0625 -3.03125 3.40625 -3.890625 2.28125 -3.890625 C 1.859375 -3.890625 1.484375 -3.8125 1.3125 -3.734375 L 1.5 -5.40625 C 1.875 -5.359375 2.1875 -5.3125 2.671875 -5.3125 C 2.96875 -5.3125 3.3125 -5.328125 3.71875 -5.375 L 3.875 -6.046875 L 3.8125 -6.09375 C 3.234375 -6.03125 2.703125 -5.984375 2.171875 -5.984375 C 1.796875 -5.984375 1.453125 -6 1.09375 -6.03125 L 0.75 -3.15625 C 1.28125 -3.359375 1.671875 -3.40625 2.03125 -3.40625 C 2.671875 -3.40625 3.1875 -2.96875 3.1875 -1.890625 Z M 3.1875 -1.890625 "/>
</g>
<g id="glyph-0-6">
<path d="M 1.34375 -3.0625 C 1.671875 -3.265625 2 -3.296875 2.171875 -3.296875 C 3.15625 -3.296875 3.375 -2.328125 3.375 -1.828125 C 3.375 -0.734375 2.953125 -0.234375 2.46875 -0.234375 C 1.828125 -0.234375 1.265625 -0.578125 1.265625 -2.28125 C 1.265625 -2.5 1.28125 -2.765625 1.34375 -3.0625 Z M 1.4375 -3.421875 C 1.703125 -4.328125 2.34375 -5.328125 3.671875 -5.828125 C 3.671875 -5.953125 3.625 -6.046875 3.546875 -6.09375 C 2.546875 -5.796875 1.921875 -5.375 1.359375 -4.71875 C 0.75 -4 0.4375 -3.09375 0.4375 -2.3125 C 0.4375 -0.296875 1.578125 0.109375 2.359375 0.109375 C 3.65625 0.109375 4.203125 -1.15625 4.203125 -2.015625 C 4.203125 -2.875 3.734375 -3.640625 2.375 -3.640625 C 2.125 -3.640625 1.734375 -3.5625 1.4375 -3.421875 Z M 1.4375 -3.421875 "/>
</g>
<g id="glyph-0-7">
<path d="M 4.609375 -2.25 C 4.75 -2.25 4.890625 -2.484375 4.890625 -2.578125 C 4.890625 -2.65625 4.84375 -2.75 4.75 -2.75 L 0.84375 -2.75 C 0.734375 -2.75 0.59375 -2.5625 0.59375 -2.40625 C 0.59375 -2.328125 0.65625 -2.25 0.75 -2.25 Z M 4.609375 -2.25 "/>
</g>
<g id="glyph-0-8">
<path d="M 0.5625 -0.421875 C 0.5625 -0.140625 0.8125 0.09375 1.09375 0.09375 C 1.390625 0.09375 1.625 -0.140625 1.625 -0.421875 C 1.625 -0.71875 1.390625 -0.953125 1.09375 -0.953125 C 0.8125 -0.953125 0.5625 -0.71875 0.5625 -0.421875 Z M 0.5625 -0.421875 "/>
</g>
<g id="glyph-0-9">
<path d="M 0.703125 -2.515625 C 0.703125 -2.21875 0.953125 -1.984375 1.25 -1.984375 C 1.546875 -1.984375 1.78125 -2.21875 1.78125 -2.515625 C 1.78125 -2.828125 1.546875 -3.0625 1.25 -3.0625 C 0.953125 -3.0625 0.703125 -2.828125 0.703125 -2.515625 Z M 0.703125 -2.515625 "/>
</g>
<g id="glyph-0-10">
<path d="M 0.421875 -2.734375 C 0.421875 -0.53125 1.46875 1.03125 3.078125 1.859375 L 3.234375 1.578125 C 1.78125 0.625 1.25 -0.734375 1.25 -2.734375 C 1.25 -4.71875 1.78125 -6.046875 3.234375 -7.015625 L 3.078125 -7.28125 C 1.46875 -6.453125 0.421875 -4.90625 0.421875 -2.734375 Z M 0.421875 -2.734375 "/>
</g>
<g id="glyph-0-11">
<path d="M 1.03125 -0.953125 C 0.734375 -0.953125 0.515625 -0.734375 0.515625 -0.453125 C 0.515625 -0.140625 0.765625 -0.046875 0.953125 -0.015625 C 1.140625 0 1.3125 0.0625 1.3125 0.296875 C 1.3125 0.5 0.953125 0.953125 0.421875 1.09375 C 0.421875 1.1875 0.453125 1.25 0.515625 1.328125 C 1.109375 1.21875 1.6875 0.734375 1.6875 0.046875 C 1.6875 -0.5625 1.4375 -0.953125 1.03125 -0.953125 Z M 1.03125 -0.953125 "/>
</g>
<g id="glyph-0-12">
<path d="M 3.125 -2.734375 C 3.125 -4.90625 2.078125 -6.453125 0.46875 -7.28125 L 0.3125 -7.015625 C 1.765625 -6.046875 2.296875 -4.71875 2.296875 -2.734375 C 2.296875 -0.734375 1.765625 0.625 0.3125 1.578125 L 0.46875 1.859375 C 2.078125 1.03125 3.125 -0.53125 3.125 -2.734375 Z M 3.125 -2.734375 "/>
</g>
<g id="glyph-0-13">
<path d="M 2 -3.078125 L 2.34375 -2.09375 L 1.421875 -0.734375 C 1.3125 -0.5625 1.203125 -0.53125 1.140625 -0.53125 C 1.0625 -0.53125 0.953125 -0.5625 0.875 -0.59375 C 0.78125 -0.640625 0.671875 -0.65625 0.578125 -0.65625 C 0.359375 -0.65625 0.203125 -0.5 0.203125 -0.28125 C 0.203125 -0.015625 0.546875 0.09375 0.78125 0.09375 C 1.109375 0.09375 1.359375 -0.046875 1.796875 -0.671875 L 2.484375 -1.671875 L 2.875 -0.453125 C 2.984375 -0.0625 3.09375 0.09375 3.4375 0.09375 C 3.78125 0.09375 4.234375 -0.09375 4.53125 -0.609375 C 4.5 -0.703125 4.40625 -0.78125 4.296875 -0.796875 C 4.03125 -0.46875 3.90625 -0.390625 3.796875 -0.390625 C 3.703125 -0.390625 3.640625 -0.515625 3.5625 -0.75 L 3.015625 -2.359375 L 3.78125 -3.484375 C 3.921875 -3.703125 4.171875 -3.75 4.25 -3.75 C 4.328125 -3.75 4.453125 -3.71875 4.546875 -3.65625 C 4.609375 -3.59375 4.78125 -3.546875 4.875 -3.546875 C 5.015625 -3.546875 5.1875 -3.75 5.1875 -3.984375 C 5.1875 -4.234375 4.921875 -4.375 4.6875 -4.375 C 4.203125 -4.375 3.875 -4.203125 3.375 -3.5 L 2.875 -2.78125 L 2.609375 -3.65625 C 2.4375 -4.171875 2.328125 -4.375 2.078125 -4.375 C 1.828125 -4.375 1.109375 -3.953125 0.75 -3.703125 C 0.765625 -3.59375 0.8125 -3.46875 0.890625 -3.390625 C 1 -3.453125 1.328125 -3.609375 1.53125 -3.609375 C 1.671875 -3.609375 1.765625 -3.578125 1.8125 -3.5 C 1.859375 -3.421875 1.921875 -3.25 2 -3.078125 Z M 2 -3.078125 "/>
</g>
<g id="glyph-0-14">
<path d="M 0.203125 0 L 0.234375 0.125 L 0.96875 -0.125 L 1.53125 -2.515625 C 2.296875 -3.5 2.90625 -3.921875 3.25 -3.921875 C 3.453125 -3.921875 3.640625 -3.78125 3.640625 -3.46875 C 3.640625 -3.296875 3.59375 -3.046875 3.515625 -2.734375 L 3.09375 -1.140625 C 3 -0.765625 2.953125 -0.546875 2.953125 -0.328125 C 2.953125 -0.03125 3.171875 0.125 3.390625 0.125 C 3.765625 0.125 4.171875 -0.125 4.75 -0.828125 L 4.546875 -1 C 4.203125 -0.59375 4 -0.40625 3.84375 -0.40625 C 3.78125 -0.40625 3.75 -0.484375 3.75 -0.59375 C 3.75 -0.6875 3.765625 -0.859375 3.859375 -1.21875 L 4.28125 -2.828125 C 4.359375 -3.109375 4.421875 -3.421875 4.421875 -3.625 C 4.421875 -4.234375 4.109375 -4.40625 3.734375 -4.40625 C 3.21875 -4.40625 2.578125 -4.171875 1.671875 -3.09375 L 2.546875 -6.953125 L 2.328125 -6.953125 C 2.109375 -6.875 1.96875 -6.828125 1.765625 -6.78125 C 1.59375 -6.765625 1.21875 -6.703125 1.0625 -6.703125 L 1.015625 -6.453125 C 1.015625 -6.421875 1.03125 -6.40625 1.0625 -6.40625 L 1.390625 -6.4375 C 1.53125 -6.4375 1.59375 -6.34375 1.59375 -6.15625 C 1.59375 -6.046875 1.578125 -5.921875 1.53125 -5.765625 Z M 0.203125 0 "/>
</g>
<g id="glyph-1-0">
<path d="M 3.21875 -1.578125 C 3.3125 -1.578125 3.421875 -1.734375 3.421875 -1.8125 C 3.421875 -1.859375 3.390625 -1.921875 3.3125 -1.921875 L 0.59375 -1.921875 C 0.515625 -1.921875 0.421875 -1.796875 0.421875 -1.6875 C 0.421875 -1.625 0.453125 -1.578125 0.515625 -1.578125 Z M 3.21875 -1.578125 "/>
</g>
<g id="glyph-1-1">
<path d="M 0.421875 -3.265625 C 0.421875 -3.109375 0.5625 -2.984375 0.703125 -2.984375 C 0.828125 -2.984375 1.03125 -3.109375 1.03125 -3.265625 C 1.03125 -3.328125 1.015625 -3.359375 1 -3.421875 C 0.984375 -3.46875 0.953125 -3.53125 0.953125 -3.578125 C 0.953125 -3.75 1.125 -4 1.640625 -4 C 1.890625 -4 2.25 -3.828125 2.25 -3.15625 C 2.25 -2.71875 2.078125 -2.359375 1.671875 -1.9375 L 1.15625 -1.421875 C 0.46875 -0.734375 0.359375 -0.390625 0.359375 0.015625 C 0.359375 0.015625 0.71875 0 0.9375 0 L 2.15625 0 C 2.390625 0 2.703125 0.015625 2.703125 0.015625 C 2.796875 -0.359375 2.859375 -0.875 2.875 -1.09375 C 2.828125 -1.125 2.734375 -1.140625 2.671875 -1.125 C 2.546875 -0.625 2.4375 -0.453125 2.1875 -0.453125 L 0.9375 -0.453125 C 0.9375 -0.78125 1.421875 -1.265625 1.453125 -1.296875 L 2.15625 -1.96875 C 2.5625 -2.359375 2.859375 -2.65625 2.859375 -3.1875 C 2.859375 -3.9375 2.25 -4.25 1.671875 -4.25 C 0.90625 -4.25 0.421875 -3.671875 0.421875 -3.265625 Z M 0.421875 -3.265625 "/>
</g>
<g id="glyph-1-2">
<path d="M 2 -0.84375 L 2 -3.265625 C 2 -3.6875 2.015625 -4.109375 2.03125 -4.203125 C 2.03125 -4.234375 2 -4.234375 1.984375 -4.234375 C 1.59375 -4 1.234375 -3.828125 0.625 -3.546875 C 0.625 -3.453125 0.65625 -3.390625 0.71875 -3.359375 C 1.03125 -3.484375 1.203125 -3.53125 1.328125 -3.53125 C 1.4375 -3.53125 1.46875 -3.359375 1.46875 -3.125 L 1.46875 -0.84375 C 1.46875 -0.265625 1.28125 -0.234375 0.796875 -0.21875 C 0.75 -0.171875 0.75 -0.03125 0.796875 0.015625 C 1.140625 0 1.375 0 1.765625 0 C 2.09375 0 2.265625 0 2.609375 0.015625 C 2.65625 -0.03125 2.65625 -0.171875 2.609375 -0.21875 C 2.125 -0.234375 2 -0.265625 2 -0.84375 Z M 2 -0.84375 "/>
</g>
<g id="glyph-1-3">
<path d="M 2.21875 -1.3125 C 2.21875 -0.65625 1.875 -0.171875 1.453125 -0.171875 C 1.1875 -0.171875 1.09375 -0.34375 1 -0.484375 C 0.90625 -0.59375 0.78125 -0.703125 0.640625 -0.703125 C 0.515625 -0.703125 0.375 -0.578125 0.375 -0.453125 C 0.375 -0.15625 0.96875 0.078125 1.359375 0.078125 C 2.234375 0.078125 2.84375 -0.5625 2.84375 -1.4375 C 2.84375 -2.125 2.375 -2.71875 1.59375 -2.71875 C 1.296875 -2.71875 1.03125 -2.65625 0.90625 -2.609375 L 1.046875 -3.78125 C 1.3125 -3.75 1.53125 -3.71875 1.875 -3.71875 C 2.078125 -3.71875 2.3125 -3.734375 2.59375 -3.75 L 2.703125 -4.234375 L 2.65625 -4.265625 C 2.265625 -4.21875 1.890625 -4.1875 1.515625 -4.1875 C 1.265625 -4.1875 1.015625 -4.1875 0.765625 -4.21875 L 0.53125 -2.203125 C 0.90625 -2.34375 1.15625 -2.375 1.421875 -2.375 C 1.875 -2.375 2.21875 -2.078125 2.21875 -1.3125 Z M 2.21875 -1.3125 "/>
</g>
<g id="glyph-1-4">
<path d="M 4.0625 -2.1875 C 4.21875 -2.421875 4.203125 -2.71875 3.890625 -2.875 C 3.59375 -3.015625 3.359375 -2.828125 3.296875 -2.609375 L 2.4375 -0.5625 C 2.40625 -0.515625 2.40625 -0.453125 2.40625 -0.40625 C 2.40625 -0.3125 2.5 -0.21875 2.609375 -0.21875 C 2.671875 -0.21875 2.75 -0.28125 2.78125 -0.34375 Z M 2.125 -2.1875 C 2.265625 -2.421875 2.265625 -2.71875 1.9375 -2.875 C 1.640625 -3.015625 1.421875 -2.828125 1.34375 -2.609375 L 0.484375 -0.5625 C 0.453125 -0.515625 0.453125 -0.453125 0.453125 -0.40625 C 0.453125 -0.3125 0.546875 -0.21875 0.65625 -0.21875 C 0.71875 -0.21875 0.796875 -0.28125 0.84375 -0.34375 Z M 2.125 -2.1875 "/>
</g>
</g>
<clipPath id="clip-0">
<path clip-rule="nonzero" d="M 0 0 L 375.242188 0 L 375.242188 184.046875 L 0 184.046875 Z M 0 0 "/>
</clipPath>
<clipPath id="clip-1">
<path clip-rule="nonzero" d="M 56.847656 29.398438 L 352.171875 29.398438 L 352.171875 154.644531 L 56.847656 154.644531 Z M 56.847656 29.398438 "/>
</clipPath>
</defs>
<g clip-path="url(#clip-0)">
<path fill-rule="nonzero" fill="rgb(95.292664%, 95.684814%, 95.684814%)" fill-opacity="1" d="M 0 176.078125 L 0 7.96875 C 0 3.566406 3.566406 -0.00390625 7.96875 -0.00390625 L 367.277344 -0.00390625 C 371.679688 -0.00390625 375.246094 3.566406 375.246094 7.96875 L 375.246094 176.078125 C 375.246094 180.480469 371.679688 184.046875 367.277344 184.046875 L 7.96875 184.046875 C 3.566406 184.046875 0 180.480469 0 176.078125 Z M 0 176.078125 "/>
</g>
<path fill="none" stroke-width="0.3985" stroke-linecap="butt" stroke-linejoin="miter" stroke="rgb(75%, 75%, 75%)" stroke-opacity="1" stroke-miterlimit="10" d="M 55.374656 0.00146875 L 55.374656 125.247563 M 101.515281 0.00146875 L 101.515281 125.247563 M 147.659812 0.00146875 L 147.659812 125.247563 M 193.804344 0.00146875 L 193.804344 125.247563 M 239.948875 0.00146875 L 239.948875 125.247563 M 286.093406 0.00146875 L 286.093406 125.247563 " transform="matrix(1, 0, 0, -1, 56.848, 154.646)"/>
<path fill="none" stroke-width="0.3985" stroke-linecap="butt" stroke-linejoin="miter" stroke="rgb(75%, 75%, 75%)" stroke-opacity="1" stroke-miterlimit="10" d="M -0.00034375 0.00146875 L 295.323875 0.00146875 M -0.00034375 31.310063 L 295.323875 31.310063 M -0.00034375 93.935063 L 295.323875 93.935063 M -0.00034375 125.247563 L 295.323875 125.247563 " transform="matrix(1, 0, 0, -1, 56.848, 154.646)"/>
<path fill="none" stroke-width="0.19925" stroke-linecap="butt" stroke-linejoin="miter" stroke="rgb(50%, 50%, 50%)" stroke-opacity="1" stroke-miterlimit="10" d="M 55.374656 60.497563 L 55.374656 64.747563 M 101.515281 60.497563 L 101.515281 64.747563 M 147.659812 60.497563 L 147.659812 64.747563 M 193.804344 60.497563 L 193.804344 64.747563 M 239.948875 60.497563 L 239.948875 64.747563 M 286.093406 60.497563 L 286.093406 64.747563 " transform="matrix(1, 0, 0, -1, 56.848, 154.646)"/>
<path fill="none" stroke-width="0.19925" stroke-linecap="butt" stroke-linejoin="miter" stroke="rgb(50%, 50%, 50%)" stroke-opacity="1" stroke-miterlimit="10" d="M 7.101219 0.00146875 L 11.355125 0.00146875 M 7.101219 31.310063 L 11.355125 31.310063 M 7.101219 93.935063 L 11.355125 93.935063 M 7.101219 125.247563 L 11.355125 125.247563 " transform="matrix(1, 0, 0, -1, 56.848, 154.646)"/>
<path fill="none" stroke-width="0.79701" stroke-linecap="butt" stroke-linejoin="miter" stroke="rgb(0%, 0%, 0%)" stroke-opacity="1" stroke-miterlimit="10" d="M -0.00034375 62.622563 L 292.730125 62.622563 " transform="matrix(1, 0, 0, -1, 56.848, 154.646)"/>
<path fill-rule="nonzero" fill="rgb(0%, 0%, 0%)" fill-opacity="1" d="M 352.171875 92.023438 L 348.027344 89.949219 L 349.578125 92.023438 L 348.027344 94.09375 "/>
<path fill="none" stroke-width="0.79701" stroke-linecap="butt" stroke-linejoin="miter" stroke="rgb(0%, 0%, 0%)" stroke-opacity="1" stroke-miterlimit="10" d="M 9.230125 0.00146875 L 9.230125 122.657719 " transform="matrix(1, 0, 0, -1, 56.848, 154.646)"/>
<path fill-rule="nonzero" fill="rgb(0%, 0%, 0%)" fill-opacity="1" d="M 66.078125 29.398438 L 64.003906 33.542969 L 66.078125 31.988281 L 68.148438 33.542969 "/>
<g fill="rgb(0%, 0%, 0%)" fill-opacity="1">
<use xlink:href="#glyph-0-0" x="107.588" y="104.063"/>
<use xlink:href="#glyph-0-1" x="112.220628" y="104.063"/>
</g>
<g fill="rgb(0%, 0%, 0%)" fill-opacity="1">
<use xlink:href="#glyph-0-2" x="153.731" y="104.063"/>
<use xlink:href="#glyph-0-1" x="158.363628" y="104.063"/>
</g>
<g fill="rgb(0%, 0%, 0%)" fill-opacity="1">
<use xlink:href="#glyph-0-3" x="199.875" y="104.063"/>
<use xlink:href="#glyph-0-1" x="204.507628" y="104.063"/>
</g>
<g fill="rgb(0%, 0%, 0%)" fill-opacity="1">
<use xlink:href="#glyph-0-4" x="246.018" y="104.063"/>
<use xlink:href="#glyph-0-1" x="250.650628" y="104.063"/>
</g>
<g fill="rgb(0%, 0%, 0%)" fill-opacity="1">
<use xlink:href="#glyph-0-5" x="292.162" y="104.073"/>
<use xlink:href="#glyph-0-1" x="296.794628" y="104.073"/>
</g>
<g fill="rgb(0%, 0%, 0%)" fill-opacity="1">
<use xlink:href="#glyph-0-6" x="338.305" y="104.073"/>
<use xlink:href="#glyph-0-1" x="342.937628" y="104.073"/>
</g>
<g fill="rgb(0%, 0%, 0%)" fill-opacity="1">
<use xlink:href="#glyph-0-7" x="43.179" y="157.635"/>
<use xlink:href="#glyph-0-1" x="48.658452" y="157.635"/>
<use xlink:href="#glyph-0-8" x="53.29108" y="157.635"/>
<use xlink:href="#glyph-0-0" x="55.48286" y="157.635"/>
</g>
<g fill="rgb(0%, 0%, 0%)" fill-opacity="1">
<use xlink:href="#glyph-0-7" x="26.313" y="127.275"/>
<use xlink:href="#glyph-0-5" x="31.792452" y="127.275"/>
</g>
<g fill="rgb(0%, 0%, 0%)" fill-opacity="1">
<use xlink:href="#glyph-0-9" x="38.636786" y="127.275"/>
</g>
<g fill="rgb(0%, 0%, 0%)" fill-opacity="1">
<use xlink:href="#glyph-0-0" x="43.339152" y="127.275"/>
<use xlink:href="#glyph-0-1" x="47.971779" y="127.275"/>
</g>
<g fill="rgb(0%, 0%, 0%)" fill-opacity="1">
<use xlink:href="#glyph-1-0" x="52.609" y="123.539"/>
<use xlink:href="#glyph-1-1" x="56.444617" y="123.539"/>
</g>
<g fill="rgb(0%, 0%, 0%)" fill-opacity="1">
<use xlink:href="#glyph-0-5" x="31.793" y="64.653"/>
</g>
<g fill="rgb(0%, 0%, 0%)" fill-opacity="1">
<use xlink:href="#glyph-0-9" x="38.637334" y="64.653"/>
</g>
<g fill="rgb(0%, 0%, 0%)" fill-opacity="1">
<use xlink:href="#glyph-0-0" x="43.3397" y="64.653"/>
<use xlink:href="#glyph-0-1" x="47.972327" y="64.653"/>
</g>
<g fill="rgb(0%, 0%, 0%)" fill-opacity="1">
<use xlink:href="#glyph-1-0" x="52.609" y="60.917"/>
<use xlink:href="#glyph-1-1" x="56.444617" y="60.917"/>
</g>
<g fill="rgb(0%, 0%, 0%)" fill-opacity="1">
<use xlink:href="#glyph-0-1" x="48.659" y="32.391"/>
<use xlink:href="#glyph-0-8" x="53.291628" y="32.391"/>
<use xlink:href="#glyph-0-0" x="55.483408" y="32.391"/>
</g>
<g clip-path="url(#clip-1)">
<path fill="none" stroke-width="1.59404" stroke-linecap="butt" stroke-linejoin="miter" stroke="rgb(0%, 35.293579%, 58.036804%)" stroke-opacity="1" stroke-miterlimit="10" d="M 9.230125 104.372563 L 10.155906 104.091313 L 11.081688 103.813969 L 12.007469 103.532719 L 12.93325 103.255375 L 13.859031 102.974125 L 14.784813 102.696781 L 15.710594 102.415531 L 16.636375 102.138188 L 17.562156 101.856938 L 18.487938 101.579594 L 19.413719 101.298344 L 20.3395 101.021 L 21.265281 100.73975 L 22.191063 100.462406 L 23.116844 100.181156 L 24.042625 99.903813 L 24.972313 99.622563 L 25.898094 99.345219 L 26.823875 99.063969 L 27.749656 98.786625 L 28.675438 98.505375 L 30.527 97.950688 L 31.452781 97.669438 L 32.378563 97.392094 L 33.304344 97.110844 L 34.230125 96.8335 L 35.155906 96.55225 L 36.081688 96.274906 L 37.007469 95.993656 L 37.93325 95.716313 L 38.859031 95.435063 L 39.784813 95.157719 L 40.710594 94.876469 L 41.636375 94.599125 L 42.562156 94.317875 L 43.491844 94.040531 L 44.417625 93.759281 L 45.343406 93.481938 L 46.269188 93.200688 L 47.194969 92.923344 L 48.12075 92.642094 L 49.046531 92.36475 L 49.972313 92.0835 L 50.898094 91.806156 L 51.823875 91.524906 L 52.749656 91.247563 L 53.675438 90.966313 L 54.601219 90.688969 L 55.527 90.407719 L 56.452781 90.130375 L 57.378563 89.849125 L 58.304344 89.571781 L 59.230125 89.290531 L 60.155906 89.013188 L 61.085594 88.731938 L 62.011375 88.454594 L 62.937156 88.173344 L 63.862938 87.896 L 64.788719 87.61475 L 65.7145 87.337406 L 66.640281 87.056156 L 67.566063 86.778813 L 68.491844 86.497563 L 69.417625 86.220219 L 70.343406 85.938969 L 71.269188 85.661625 L 72.194969 85.380375 L 74.046531 84.825688 L 74.972313 84.544438 L 75.898094 84.267094 L 76.823875 83.985844 L 77.749656 83.7085 L 78.675438 83.42725 L 79.605125 83.149906 L 80.530906 82.868656 L 81.456688 82.591313 L 82.382469 82.310063 L 83.30825 82.032719 L 84.234031 81.751469 L 85.159813 81.474125 L 86.085594 81.192875 L 87.011375 80.915531 L 87.937156 80.634281 L 88.862938 80.356938 L 89.788719 80.075688 L 90.7145 79.798344 L 91.640281 79.517094 L 92.566063 79.23975 L 93.491844 78.9585 L 94.417625 78.681156 L 95.343406 78.399906 L 96.269188 78.122563 L 97.194969 77.841313 L 98.124656 77.563969 L 99.050438 77.282719 L 99.976219 77.005375 L 100.902 76.724125 L 101.827781 76.446781 L 102.753563 76.165531 L 103.679344 75.888188 L 104.605125 75.606938 L 105.530906 75.329594 L 106.456688 75.048344 L 107.382469 74.771 L 108.30825 74.48975 L 109.234031 74.212406 L 110.159813 73.931156 L 111.085594 73.653813 L 112.011375 73.372563 L 112.937156 73.095219 L 113.862938 72.813969 L 114.788719 72.536625 L 115.7145 72.255375 L 116.644188 71.978031 L 117.569969 71.700688 L 118.49575 71.419438 L 119.421531 71.142094 L 120.347313 70.860844 L 121.273094 70.5835 L 122.198875 70.30225 L 123.124656 70.024906 L 124.050438 69.743656 L 124.976219 69.466313 L 125.902 69.185063 L 126.827781 68.907719 L 127.753563 68.626469 L 128.679344 68.349125 L 129.605125 68.067875 L 130.530906 67.790531 L 131.456687 67.509281 L 132.382469 67.231938 L 133.30825 66.950688 L 134.234031 66.673344 L 135.163719 66.392094 L 136.0895 66.11475 L 137.015281 65.8335 L 137.941062 65.556156 L 138.866844 65.274906 L 139.792625 64.997563 L 140.718406 64.716313 L 141.644187 64.438969 L 142.569969 64.157719 L 143.49575 63.880375 L 144.421531 63.599125 L 145.347312 63.321781 L 146.273094 63.040531 L 147.198875 62.763188 L 148.124656 62.481938 L 149.050437 62.204594 L 149.976219 61.923344 L 150.902 61.646 L 151.827781 61.36475 L 152.753562 61.087406 L 153.68325 60.806156 L 154.609031 60.528813 L 155.534812 60.247563 L 156.460594 59.970219 L 157.386375 59.688969 L 158.312156 59.411625 L 159.237937 59.130375 L 161.0895 58.575688 L 162.015281 58.294438 L 162.941062 58.017094 L 163.866844 57.735844 L 164.792625 57.4585 L 165.718406 57.17725 L 166.644187 56.899906 L 167.569969 56.618656 L 168.49575 56.341313 L 169.421531 56.060063 L 170.347312 55.782719 L 171.273094 55.501469 L 172.202781 55.224125 L 173.128562 54.942875 L 174.054344 54.665531 L 174.980125 54.384281 L 175.905906 54.106938 L 176.831687 53.825688 L 177.757469 53.548344 L 178.68325 53.267094 L 179.609031 52.98975 L 180.534812 52.7085 L 181.460594 52.431156 L 182.386375 52.149906 L 183.312156 51.872563 L 184.237937 51.591313 L 185.163719 51.313969 L 186.0895 51.032719 L 187.015281 50.755375 L 187.941062 50.474125 L 188.866844 50.196781 L 189.792625 49.915531 L 190.722312 49.638188 L 191.648094 49.356938 L 192.573875 49.079594 L 193.499656 48.798344 L 194.425437 48.521 L 195.351219 48.23975 L 196.277 47.962406 L 197.202781 47.681156 L 198.128562 47.403813 L 199.054344 47.122563 L 199.980125 46.845219 L 200.905906 46.563969 L 201.831687 46.286625 L 202.757469 46.005375 L 204.609031 45.450688 L 205.534812 45.169438 L 206.460594 44.892094 L 207.386375 44.610844 L 208.312156 44.3335 L 209.241844 44.05225 L 210.167625 43.774906 L 211.093406 43.493656 L 212.019187 43.216313 L 212.944969 42.935063 L 213.87075 42.657719 L 214.796531 42.376469 L 215.722312 42.099125 L 216.648094 41.817875 L 217.573875 41.540531 L 218.499656 41.259281 L 219.425437 40.981938 L 220.351219 40.700688 L 221.277 40.423344 L 222.202781 40.142094 L 223.128562 39.86475 L 224.054344 39.5835 L 224.980125 39.306156 L 225.905906 39.024906 L 226.835594 38.747563 L 227.761375 38.466313 L 228.687156 38.188969 L 229.612937 37.907719 L 230.538719 37.630375 L 231.4645 37.349125 L 232.390281 37.071781 L 233.316062 36.790531 L 234.241844 36.513188 L 235.167625 36.231938 L 236.093406 35.954594 L 237.019187 35.673344 L 237.944969 35.396 L 238.87075 35.11475 L 239.796531 34.837406 L 240.722312 34.556156 L 241.648094 34.278813 L 242.573875 33.997563 L 243.499656 33.720219 L 244.425437 33.438969 L 245.355125 33.161625 L 246.280906 32.880375 L 248.132469 32.325688 L 249.05825 32.044438 L 249.984031 31.767094 L 250.909812 31.485844 L 251.835594 31.2085 L 252.761375 30.92725 L 253.687156 30.649906 L 254.612937 30.368656 L 255.538719 30.091313 L 256.4645 29.810063 L 257.390281 29.532719 L 258.316062 29.251469 L 259.241844 28.974125 L 260.167625 28.692875 L 261.093406 28.415531 L 262.019187 28.134281 L 262.944969 27.856938 L 263.874656 27.575688 L 264.800437 27.298344 L 265.726219 27.017094 L 266.652 26.73975 L 267.577781 26.4585 L 268.503562 26.181156 L 269.429344 25.899906 L 270.355125 25.622563 L 271.280906 25.341313 L 272.206687 25.063969 L 273.132469 24.782719 L 274.05825 24.505375 L 274.984031 24.224125 L 275.909812 23.946781 L 276.835594 23.665531 L 277.761375 23.388188 L 278.687156 23.106938 L 279.612937 22.829594 L 280.538719 22.548344 L 281.4645 22.271 L 282.394187 21.98975 L 283.319969 21.712406 L 284.24575 21.431156 L 285.171531 21.153813 L 286.097312 20.872563 " transform="matrix(1, 0, 0, -1, 56.848, 154.646)"/>
</g>
<g fill="rgb(28.234863%, 28.625488%, 28.625488%)" fill-opacity="1">
<use xlink:href="#glyph-0-10" x="76.187" y="52.607"/>
<use xlink:href="#glyph-0-1" x="79.7337" y="52.607"/>
<use xlink:href="#glyph-0-11" x="84.366327" y="52.607"/>
</g>
<g fill="rgb(28.234863%, 28.625488%, 28.625488%)" fill-opacity="1">
<use xlink:href="#glyph-1-2" x="91.035" y="46.629"/>
</g>
<path fill="none" stroke-width="0.648" stroke-linecap="butt" stroke-linejoin="miter" stroke="rgb(28.234863%, 28.625488%, 28.625488%)" stroke-opacity="1" stroke-miterlimit="10" d="M 0.0000625 0.000375 L 6.484437 0.000375 " transform="matrix(1, 0, 0, -1, 89.414, 50.016)"/>
<g fill="rgb(28.234863%, 28.625488%, 28.625488%)" fill-opacity="1">
<use xlink:href="#glyph-1-2" x="89.414" y="58.086"/>
<use xlink:href="#glyph-1-3" x="92.65684" y="58.086"/>
</g>
<g fill="rgb(28.234863%, 28.625488%, 28.625488%)" fill-opacity="1">
<use xlink:href="#glyph-0-12" x="97.095" y="52.607"/>
</g>
<g fill="rgb(28.234863%, 28.625488%, 28.625488%)" fill-opacity="1">
<use xlink:href="#glyph-0-10" x="192.916" y="84.345"/>
<use xlink:href="#glyph-0-3" x="196.4627" y="84.345"/>
<use xlink:href="#glyph-0-1" x="201.095327" y="84.345"/>
<use xlink:href="#glyph-0-11" x="205.727955" y="84.345"/>
</g>
<g fill="rgb(28.234863%, 28.625488%, 28.625488%)" fill-opacity="1">
<use xlink:href="#glyph-0-1" x="209.573534" y="84.345"/>
<use xlink:href="#glyph-0-12" x="214.206162" y="84.345"/>
</g>
<g fill="rgb(28.234863%, 28.625488%, 28.625488%)" fill-opacity="1">
<use xlink:href="#glyph-0-10" x="304.536" y="147.825"/>
<use xlink:href="#glyph-0-6" x="308.0827" y="147.825"/>
<use xlink:href="#glyph-0-1" x="312.715327" y="147.825"/>
<use xlink:href="#glyph-0-11" x="317.347955" y="147.825"/>
</g>
<g fill="rgb(28.234863%, 28.625488%, 28.625488%)" fill-opacity="1">
<use xlink:href="#glyph-0-7" x="321.193534" y="147.825"/>
</g>
<g fill="rgb(28.234863%, 28.625488%, 28.625488%)" fill-opacity="1">
<use xlink:href="#glyph-1-2" x="329.496" y="141.848"/>
</g>
<path fill="none" stroke-width="0.648" stroke-linecap="butt" stroke-linejoin="miter" stroke="rgb(28.234863%, 28.625488%, 28.625488%)" stroke-opacity="1" stroke-miterlimit="10" d="M -0.000000000000056843 0.000625 L 6.484375 0.000625 " transform="matrix(1, 0, 0, -1, 327.875, 145.235)"/>
<g fill="rgb(28.234863%, 28.625488%, 28.625488%)" fill-opacity="1">
<use xlink:href="#glyph-1-2" x="327.875" y="153.305"/>
<use xlink:href="#glyph-1-3" x="331.11784" y="153.305"/>
</g>
<g fill="rgb(28.234863%, 28.625488%, 28.625488%)" fill-opacity="1">
<use xlink:href="#glyph-0-12" x="335.556" y="147.825"/>
</g>
<path fill-rule="nonzero" fill="rgb(90.979004%, 47.059631%, 27.450562%)" fill-opacity="1" stroke-width="0.3985" stroke-linecap="butt" stroke-linejoin="miter" stroke="rgb(90.979004%, 47.059631%, 27.450562%)" stroke-opacity="1" stroke-miterlimit="10" d="M 11.222313 104.372563 C 11.222313 105.470219 10.327781 106.36475 9.230125 106.36475 C 8.128563 106.36475 7.237938 105.470219 7.237938 104.372563 C 7.237938 103.271 8.128563 102.380375 9.230125 102.380375 C 10.327781 102.380375 11.222313 103.271 11.222313 104.372563 Z M 11.222313 104.372563 " transform="matrix(1, 0, 0, -1, 56.848, 154.646)"/>
<path fill-rule="nonzero" fill="rgb(90.979004%, 47.059631%, 27.450562%)" fill-opacity="1" stroke-width="0.3985" stroke-linecap="butt" stroke-linejoin="miter" stroke="rgb(90.979004%, 47.059631%, 27.450562%)" stroke-opacity="1" stroke-miterlimit="10" d="M 149.655906 62.622563 C 149.655906 63.724125 148.761375 64.61475 147.663719 64.61475 C 146.562156 64.61475 145.671531 63.724125 145.671531 62.622563 C 145.671531 61.521 146.562156 60.630375 147.663719 60.630375 C 148.761375 60.630375 149.655906 61.521 149.655906 62.622563 Z M 149.655906 62.622563 " transform="matrix(1, 0, 0, -1, 56.848, 154.646)"/>
<path fill-rule="nonzero" fill="rgb(90.979004%, 47.059631%, 27.450562%)" fill-opacity="1" stroke-width="0.3985" stroke-linecap="butt" stroke-linejoin="miter" stroke="rgb(90.979004%, 47.059631%, 27.450562%)" stroke-opacity="1" stroke-miterlimit="10" d="M 288.0895 20.872563 C 288.0895 21.974125 287.194969 22.868656 286.097312 22.868656 C 284.99575 22.868656 284.105125 21.974125 284.105125 20.872563 C 284.105125 19.774906 284.99575 18.880375 286.097312 18.880375 C 287.194969 18.880375 288.0895 19.774906 288.0895 20.872563 Z M 288.0895 20.872563 " transform="matrix(1, 0, 0, -1, 56.848, 154.646)"/>
<g fill="rgb(0%, 0%, 0%)" fill-opacity="1">
<use xlink:href="#glyph-0-13" x="342.941" y="88.089"/>
</g>
<g fill="rgb(0%, 0%, 0%)" fill-opacity="1">
<use xlink:href="#glyph-0-14" x="69.912" y="40.51"/>
</g>
<g fill="rgb(0%, 0%, 0%)" fill-opacity="1">
<use xlink:href="#glyph-1-4" x="74.863" y="36.774"/>
</g>
<g fill="rgb(0%, 0%, 0%)" fill-opacity="1">
<use xlink:href="#glyph-0-10" x="79.909" y="40.51"/>
<use xlink:href="#glyph-0-13" x="83.4557" y="40.51"/>
</g>
<g fill="rgb(0%, 0%, 0%)" fill-opacity="1">
<use xlink:href="#glyph-0-12" x="88.845488" y="40.51"/>
</g>
</svg>
