<?xml version="1.0" encoding="UTF-8"?>
<svg xmlns="http://www.w3.org/2000/svg" xmlns:xlink="http://www.w3.org/1999/xlink" width="263.959pt" height="241.336pt" viewBox="0 0 263.959 241.336">
<defs>
<g>
<g id="glyph-0-0">
<path d="M 3.140625 -1.328125 L 3.140625 -5.109375 C 3.140625 -5.765625 3.15625 -6.4375 3.171875 -6.578125 C 3.171875 -6.625 3.140625 -6.625 3.109375 -6.625 C 2.5 -6.25 1.9375 -5.984375 0.96875 -5.546875 C 0.984375 -5.40625 1.03125 -5.3125 1.140625 -5.25 C 1.625 -5.453125 1.875 -5.515625 2.078125 -5.515625 C 2.25 -5.515625 2.296875 -5.25 2.296875 -4.890625 L 2.296875 -1.328125 C 2.296875 -0.421875 2 -0.375 1.25 -0.34375 C 1.171875 -0.265625 1.171875 -0.046875 1.25 0.015625 C 1.78125 0.015625 2.15625 0 2.765625 0 C 3.265625 0 3.546875 0.015625 4.09375 0.015625 C 4.15625 -0.046875 4.15625 -0.265625 4.09375 -0.34375 C 3.328125 -0.375 3.140625 -0.421875 3.140625 -1.328125 Z M 3.140625 -1.328125 "/>
</g>
<g id="glyph-0-1">
<path d="M 0.671875 -5.109375 C 0.671875 -4.875 0.875 -4.671875 1.09375 -4.671875 C 1.28125 -4.671875 1.609375 -4.859375 1.609375 -5.109375 C 1.609375 -5.203125 1.59375 -5.265625 1.578125 -5.34375 C 1.546875 -5.421875 1.484375 -5.515625 1.484375 -5.609375 C 1.484375 -5.875 1.765625 -6.265625 2.5625 -6.265625 C 2.953125 -6.265625 3.515625 -6 3.515625 -4.953125 C 3.515625 -4.25 3.265625 -3.6875 2.625 -3.03125 L 1.8125 -2.234375 C 0.734375 -1.140625 0.5625 -0.625 0.5625 0.015625 C 0.5625 0.015625 1.125 0 1.46875 0 L 3.375 0 C 3.734375 0 4.234375 0.015625 4.234375 0.015625 C 4.375 -0.5625 4.484375 -1.375 4.5 -1.703125 C 4.421875 -1.75 4.28125 -1.78125 4.171875 -1.75 C 3.984375 -0.984375 3.8125 -0.703125 3.40625 -0.703125 L 1.46875 -0.703125 C 1.46875 -1.234375 2.21875 -1.96875 2.28125 -2.03125 L 3.375 -3.09375 C 4 -3.6875 4.46875 -4.171875 4.46875 -5 C 4.46875 -6.171875 3.515625 -6.65625 2.625 -6.65625 C 1.421875 -6.65625 0.671875 -5.765625 0.671875 -5.109375 Z M 0.671875 -5.109375 "/>
</g>
<g id="glyph-0-2">
<path d="M 2.34375 -6.265625 C 2.8125 -6.265625 3.25 -5.984375 3.25 -5.28125 C 3.25 -4.734375 2.625 -3.90625 1.53125 -3.75 L 1.59375 -3.40625 C 1.78125 -3.421875 1.96875 -3.421875 2.109375 -3.421875 C 2.734375 -3.421875 3.546875 -3.25 3.546875 -2.015625 C 3.546875 -0.5625 2.578125 -0.265625 2.1875 -0.265625 C 1.640625 -0.265625 1.53125 -0.53125 1.40625 -0.71875 C 1.296875 -0.875 1.15625 -1 0.9375 -1 C 0.703125 -1 0.484375 -0.796875 0.484375 -0.625 C 0.484375 -0.1875 1.390625 0.109375 2.046875 0.109375 C 3.34375 0.109375 4.5 -0.734375 4.5 -2.171875 C 4.5 -3.359375 3.609375 -3.78125 2.96875 -3.890625 L 2.953125 -3.921875 C 3.84375 -4.328125 4.09375 -4.78125 4.09375 -5.359375 C 4.09375 -5.6875 4.03125 -5.953125 3.765625 -6.234375 C 3.515625 -6.46875 3.140625 -6.65625 2.578125 -6.65625 C 0.96875 -6.65625 0.515625 -5.609375 0.515625 -5.25 C 0.515625 -5.09375 0.625 -4.875 0.890625 -4.875 C 1.265625 -4.875 1.3125 -5.234375 1.3125 -5.4375 C 1.3125 -6.140625 2.0625 -6.265625 2.34375 -6.265625 Z M 2.34375 -6.265625 "/>
</g>
<g id="glyph-0-3">
<path d="M 2.953125 -5.53125 L 2.953125 -2.390625 L 0.875 -2.390625 C 1.421875 -3.28125 2.203125 -4.5 2.953125 -5.53125 Z M 4.6875 -2.390625 L 3.78125 -2.390625 L 3.78125 -5.578125 C 3.78125 -6.125 3.78125 -6.546875 3.8125 -6.625 L 3.78125 -6.65625 L 3.4375 -6.65625 C 3.359375 -6.65625 3.296875 -6.578125 3.265625 -6.53125 C 2.578125 -5.6875 1.296875 -3.890625 0.3125 -2.328125 C 0.34375 -2.171875 0.40625 -1.875 0.734375 -1.875 L 2.953125 -1.875 L 2.953125 -0.875 C 2.953125 -0.375 2.546875 -0.375 2.078125 -0.34375 C 2 -0.265625 2 -0.046875 2.078125 0.015625 C 2.421875 0.015625 2.859375 0 3.359375 0 C 3.78125 0 4.203125 0.015625 4.546875 0.015625 C 4.609375 -0.046875 4.609375 -0.265625 4.546875 -0.34375 C 4.015625 -0.375 3.78125 -0.359375 3.78125 -0.875 L 3.78125 -1.875 L 4.53125 -1.875 C 4.6875 -1.875 4.859375 -2.078125 4.859375 -2.21875 C 4.859375 -2.328125 4.8125 -2.390625 4.6875 -2.390625 Z M 4.6875 -2.390625 "/>
</g>
<g id="glyph-0-4">
<path d="M 5.046875 -2.46875 C 5.1875 -2.46875 5.34375 -2.71875 5.34375 -2.828125 C 5.34375 -2.90625 5.296875 -3.015625 5.1875 -3.015625 L 0.921875 -3.015625 C 0.796875 -3.015625 0.65625 -2.796875 0.65625 -2.640625 C 0.65625 -2.546875 0.71875 -2.46875 0.8125 -2.46875 Z M 5.046875 -2.46875 "/>
</g>
<g id="glyph-0-5">
<path d="M 2.1875 -3.375 L 2.5625 -2.296875 L 1.546875 -0.796875 C 1.421875 -0.625 1.3125 -0.59375 1.25 -0.59375 C 1.15625 -0.59375 1.03125 -0.609375 0.953125 -0.65625 C 0.84375 -0.703125 0.734375 -0.71875 0.625 -0.71875 C 0.390625 -0.71875 0.21875 -0.546875 0.21875 -0.3125 C 0.21875 -0.015625 0.59375 0.109375 0.84375 0.109375 C 1.21875 0.109375 1.484375 -0.046875 1.96875 -0.734375 L 2.71875 -1.828125 L 3.140625 -0.5 C 3.265625 -0.0625 3.390625 0.109375 3.765625 0.109375 C 4.140625 0.109375 4.625 -0.09375 4.96875 -0.671875 C 4.921875 -0.765625 4.828125 -0.84375 4.703125 -0.875 C 4.421875 -0.515625 4.28125 -0.421875 4.15625 -0.421875 C 4.0625 -0.421875 3.984375 -0.5625 3.890625 -0.828125 L 3.296875 -2.578125 L 4.140625 -3.8125 C 4.296875 -4.0625 4.5625 -4.09375 4.640625 -4.09375 C 4.734375 -4.09375 4.875 -4.0625 4.96875 -3.984375 C 5.046875 -3.921875 5.21875 -3.875 5.328125 -3.875 C 5.484375 -3.875 5.6875 -4.09375 5.6875 -4.359375 C 5.6875 -4.625 5.390625 -4.78125 5.140625 -4.78125 C 4.59375 -4.78125 4.234375 -4.59375 3.703125 -3.828125 L 3.15625 -3.046875 L 2.84375 -4 C 2.65625 -4.5625 2.546875 -4.78125 2.265625 -4.78125 C 2 -4.78125 1.203125 -4.328125 0.828125 -4.046875 C 0.84375 -3.921875 0.890625 -3.796875 0.96875 -3.703125 C 1.09375 -3.78125 1.46875 -3.953125 1.671875 -3.953125 C 1.828125 -3.953125 1.9375 -3.921875 1.984375 -3.828125 C 2.046875 -3.734375 2.109375 -3.5625 2.1875 -3.375 Z M 2.1875 -3.375 "/>
</g>
<g id="glyph-0-6">
<path d="M 3.515625 0 C 3.734375 -0.34375 5.0625 -2.375 5.375 -3.109375 C 5.546875 -3.484375 5.671875 -3.875 5.671875 -4.265625 C 5.671875 -4.578125 5.515625 -4.78125 5.09375 -4.78125 C 4.78125 -4.78125 4.59375 -4.640625 4.59375 -4.390625 C 4.59375 -4.3125 4.609375 -4.203125 4.640625 -4.15625 C 4.828125 -3.90625 4.875 -3.671875 4.875 -3.5 C 4.875 -3.015625 4.4375 -2.203125 4.0625 -1.609375 C 4.0625 -1.609375 3.5 -0.703125 3.21875 -0.296875 L 3.140625 -0.328125 C 3.078125 -1.609375 3 -2.625 2.671875 -3.984375 C 2.515625 -4.5625 2.375 -4.78125 2.109375 -4.78125 C 1.859375 -4.78125 1.046875 -4.328125 0.671875 -4.046875 C 0.6875 -3.921875 0.71875 -3.796875 0.8125 -3.703125 C 0.9375 -3.78125 1.296875 -3.953125 1.53125 -3.953125 C 1.671875 -3.953125 1.78125 -3.921875 1.828125 -3.828125 C 1.875 -3.734375 1.9375 -3.5625 2 -3.375 C 2.328125 -2.25 2.65625 0.40625 2.53125 0.671875 C 2.078125 1.40625 1.625 1.890625 1.46875 1.890625 C 1.359375 1.890625 1.15625 1.75 1.09375 1.6875 C 1.015625 1.625 0.796875 1.53125 0.703125 1.53125 C 0.484375 1.53125 0.203125 1.75 0.203125 2.09375 C 0.203125 2.453125 0.6875 2.546875 0.875 2.546875 C 1.453125 2.546875 2.328125 1.859375 3.015625 0.765625 Z M 3.515625 0 "/>
</g>
<g id="glyph-1-0">
<path d="M 2 -3.078125 L 2.34375 -2.09375 L 1.421875 -0.734375 C 1.3125 -0.5625 1.203125 -0.53125 1.140625 -0.53125 C 1.0625 -0.53125 0.953125 -0.5625 0.875 -0.59375 C 0.78125 -0.640625 0.671875 -0.65625 0.578125 -0.65625 C 0.359375 -0.65625 0.203125 -0.5 0.203125 -0.28125 C 0.203125 -0.015625 0.546875 0.09375 0.78125 0.09375 C 1.109375 0.09375 1.359375 -0.046875 1.796875 -0.671875 L 2.484375 -1.671875 L 2.875 -0.453125 C 2.984375 -0.0625 3.09375 0.09375 3.4375 0.09375 C 3.78125 0.09375 4.234375 -0.09375 4.53125 -0.609375 C 4.5 -0.703125 4.40625 -0.78125 4.296875 -0.796875 C 4.03125 -0.46875 3.90625 -0.390625 3.796875 -0.390625 C 3.703125 -0.390625 3.640625 -0.515625 3.5625 -0.75 L 3.015625 -2.359375 L 3.78125 -3.484375 C 3.921875 -3.703125 4.171875 -3.75 4.25 -3.75 C 4.328125 -3.75 4.453125 -3.71875 4.546875 -3.65625 C 4.609375 -3.59375 4.78125 -3.546875 4.875 -3.546875 C 5.015625 -3.546875 5.1875 -3.75 5.1875 -3.984375 C 5.1875 -4.234375 4.921875 -4.375 4.6875 -4.375 C 4.203125 -4.375 3.875 -4.203125 3.375 -3.5 L 2.875 -2.78125 L 2.609375 -3.65625 C 2.4375 -4.171875 2.328125 -4.375 2.078125 -4.375 C 1.828125 -4.375 1.109375 -3.953125 0.75 -3.703125 C 0.765625 -3.59375 0.8125 -3.46875 0.890625 -3.390625 C 1 -3.453125 1.328125 -3.609375 1.53125 -3.609375 C 1.671875 -3.609375 1.765625 -3.578125 1.8125 -3.5 C 1.859375 -3.421875 1.921875 -3.25 2 -3.078125 Z M 2 -3.078125 "/>
</g>
<g id="glyph-1-1">
<path d="M 4.625 -3.078125 C 4.75 -3.078125 4.890625 -3.3125 4.890625 -3.40625 C 4.890625 -3.484375 4.84375 -3.578125 4.75 -3.578125 L 0.84375 -3.578125 C 0.71875 -3.578125 0.59375 -3.390625 0.59375 -3.234375 C 0.59375 -3.15625 0.640625 -3.078125 0.734375 -3.078125 Z M 4.625 -1.421875 C 4.75 -1.421875 4.890625 -1.65625 4.890625 -1.75 C 4.890625 -1.828125 4.84375 -1.921875 4.75 -1.921875 L 0.84375 -1.921875 C 0.71875 -1.921875 0.59375 -1.734375 0.59375 -1.578125 C 0.59375 -1.5 0.640625 -1.421875 0.734375 -1.421875 Z M 4.625 -1.421875 "/>
</g>
<g id="glyph-1-2">
<path d="M 0.609375 -4.671875 C 0.609375 -4.453125 0.796875 -4.28125 1 -4.28125 C 1.171875 -4.28125 1.46875 -4.453125 1.46875 -4.671875 C 1.46875 -4.75 1.453125 -4.8125 1.4375 -4.890625 C 1.421875 -4.953125 1.359375 -5.046875 1.359375 -5.125 C 1.359375 -5.375 1.609375 -5.734375 2.34375 -5.734375 C 2.703125 -5.734375 3.203125 -5.484375 3.203125 -4.53125 C 3.203125 -3.890625 2.984375 -3.375 2.390625 -2.765625 L 1.65625 -2.046875 C 0.671875 -1.046875 0.515625 -0.5625 0.515625 0.015625 C 0.515625 0.015625 1.03125 0 1.34375 0 L 3.09375 0 C 3.40625 0 3.875 0.015625 3.875 0.015625 C 4 -0.515625 4.09375 -1.25 4.109375 -1.5625 C 4.046875 -1.609375 3.921875 -1.625 3.8125 -1.609375 C 3.65625 -0.890625 3.484375 -0.640625 3.125 -0.640625 L 1.34375 -0.640625 C 1.34375 -1.125 2.03125 -1.796875 2.078125 -1.859375 L 3.09375 -2.828125 C 3.65625 -3.375 4.09375 -3.8125 4.09375 -4.5625 C 4.09375 -5.640625 3.203125 -6.078125 2.40625 -6.078125 C 1.296875 -6.078125 0.609375 -5.265625 0.609375 -4.671875 Z M 0.609375 -4.671875 "/>
</g>
<g id="glyph-1-3">
<path d="M 4.609375 -6.234375 C 4.09375 -6.3125 4.15625 -6.5625 3.265625 -6.5625 C 2.4375 -6.5625 1.34375 -5.984375 1.140625 -4.9375 C 1.109375 -4.8125 1.09375 -4.703125 1.09375 -4.59375 C 1.09375 -3.71875 1.875 -3.25 2.578125 -2.90625 C 3.03125 -2.671875 3.390625 -2.359375 3.390625 -1.75 C 3.390625 -1.640625 3.375 -1.515625 3.359375 -1.390625 C 3.203125 -0.578125 2.71875 -0.265625 1.984375 -0.265625 C 1.140625 -0.265625 0.640625 -0.671875 0.625 -1.671875 L 0.328125 -1.640625 C 0.296875 -0.890625 0.28125 -0.5625 0.203125 -0.046875 C 0.78125 -0.046875 1.03125 0.09375 1.828125 0.09375 C 2.9375 0.09375 4 -0.71875 4.203125 -1.734375 C 4.21875 -1.859375 4.234375 -2 4.234375 -2.109375 C 4.234375 -2.984375 3.546875 -3.4375 2.875 -3.75 C 2.546875 -3.890625 1.828125 -4.3125 1.828125 -5 C 1.828125 -5.0625 1.828125 -5.125 1.84375 -5.203125 C 1.96875 -5.8125 2.484375 -6.21875 3.109375 -6.21875 C 4.03125 -6.21875 4.15625 -5.625 4.21875 -4.96875 L 4.53125 -4.953125 C 4.53125 -5.4375 4.578125 -5.703125 4.609375 -6.234375 Z M 4.609375 -6.234375 "/>
</g>
<g id="glyph-1-4">
<path d="M 0.421875 -2.734375 C 0.421875 -0.53125 1.46875 1.03125 3.078125 1.859375 L 3.234375 1.578125 C 1.78125 0.625 1.25 -0.734375 1.25 -2.734375 C 1.25 -4.71875 1.78125 -6.046875 3.234375 -7.015625 L 3.078125 -7.28125 C 1.46875 -6.453125 0.421875 -4.90625 0.421875 -2.734375 Z M 0.421875 -2.734375 "/>
</g>
<g id="glyph-1-5">
<path d="M 1.03125 -0.953125 C 0.734375 -0.953125 0.515625 -0.734375 0.515625 -0.453125 C 0.515625 -0.140625 0.765625 -0.046875 0.953125 -0.015625 C 1.140625 0 1.3125 0.0625 1.3125 0.296875 C 1.3125 0.5 0.953125 0.953125 0.421875 1.09375 C 0.421875 1.1875 0.453125 1.25 0.515625 1.328125 C 1.109375 1.21875 1.6875 0.734375 1.6875 0.046875 C 1.6875 -0.5625 1.4375 -0.953125 1.03125 -0.953125 Z M 1.03125 -0.953125 "/>
</g>
<g id="glyph-1-6">
<path d="M 4.609375 -2.25 C 4.75 -2.25 4.890625 -2.484375 4.890625 -2.578125 C 4.890625 -2.65625 4.84375 -2.75 4.75 -2.75 L 0.84375 -2.75 C 0.734375 -2.75 0.59375 -2.5625 0.59375 -2.40625 C 0.59375 -2.328125 0.65625 -2.25 0.75 -2.25 Z M 4.609375 -2.25 "/>
</g>
<g id="glyph-1-7">
<path d="M 2.875 -1.21875 L 2.875 -4.671875 C 2.875 -5.28125 2.875 -5.875 2.90625 -6.015625 C 2.90625 -6.046875 2.875 -6.0625 2.84375 -6.0625 C 2.28125 -5.71875 1.765625 -5.46875 0.890625 -5.0625 C 0.890625 -4.9375 0.953125 -4.859375 1.03125 -4.796875 C 1.484375 -4.984375 1.71875 -5.046875 1.90625 -5.046875 C 2.0625 -5.046875 2.109375 -4.8125 2.109375 -4.46875 L 2.109375 -1.21875 C 2.109375 -0.390625 1.828125 -0.34375 1.140625 -0.3125 C 1.078125 -0.25 1.078125 -0.046875 1.140625 0.015625 C 1.625 0.015625 1.96875 0 2.515625 0 C 2.984375 0 3.234375 0.015625 3.734375 0.015625 C 3.796875 -0.046875 3.796875 -0.25 3.734375 -0.3125 C 3.046875 -0.34375 2.875 -0.390625 2.875 -1.21875 Z M 2.875 -1.21875 "/>
</g>
<g id="glyph-1-8">
<path d="M 3.125 -2.734375 C 3.125 -4.90625 2.078125 -6.453125 0.46875 -7.28125 L 0.3125 -7.015625 C 1.765625 -6.046875 2.296875 -4.71875 2.296875 -2.734375 C 2.296875 -0.734375 1.765625 0.625 0.3125 1.578125 L 0.46875 1.859375 C 2.078125 1.03125 3.125 -0.53125 3.125 -2.734375 Z M 3.125 -2.734375 "/>
</g>
<g id="glyph-1-9">
<path d="M 2.140625 -5.734375 C 2.578125 -5.734375 2.96875 -5.46875 2.96875 -4.828125 C 2.96875 -4.328125 2.390625 -3.5625 1.40625 -3.421875 L 1.453125 -3.109375 C 1.625 -3.125 1.796875 -3.125 1.9375 -3.125 C 2.5 -3.125 3.234375 -2.96875 3.234375 -1.84375 C 3.234375 -0.515625 2.359375 -0.25 2 -0.25 C 1.5 -0.25 1.40625 -0.484375 1.28125 -0.65625 C 1.1875 -0.796875 1.0625 -0.921875 0.859375 -0.921875 C 0.640625 -0.921875 0.4375 -0.734375 0.4375 -0.5625 C 0.4375 -0.171875 1.28125 0.09375 1.875 0.09375 C 3.0625 0.09375 4.109375 -0.671875 4.109375 -1.984375 C 4.109375 -3.078125 3.296875 -3.453125 2.71875 -3.5625 L 2.703125 -3.578125 C 3.515625 -3.953125 3.75 -4.375 3.75 -4.890625 C 3.75 -5.1875 3.671875 -5.4375 3.4375 -5.6875 C 3.21875 -5.90625 2.875 -6.078125 2.359375 -6.078125 C 0.890625 -6.078125 0.46875 -5.125 0.46875 -4.796875 C 0.46875 -4.65625 0.5625 -4.453125 0.8125 -4.453125 C 1.15625 -4.453125 1.203125 -4.78125 1.203125 -4.96875 C 1.203125 -5.609375 1.890625 -5.734375 2.140625 -5.734375 Z M 2.140625 -5.734375 "/>
</g>
<g id="glyph-1-10">
<path d="M 2.3125 -5.734375 C 2.484375 -5.734375 2.640625 -5.671875 2.765625 -5.5625 C 3.078125 -5.296875 3.34375 -4.546875 3.34375 -3.203125 C 3.34375 -2.296875 3.3125 -1.671875 3.171875 -1.15625 C 2.953125 -0.34375 2.46875 -0.25 2.28125 -0.25 C 1.359375 -0.25 1.25 -1.953125 1.25 -2.828125 C 1.25 -5.28125 1.859375 -5.734375 2.3125 -5.734375 Z M 2.265625 0.09375 C 3.046875 0.09375 4.203125 -0.671875 4.203125 -3.015625 C 4.203125 -4 3.96875 -4.859375 3.53125 -5.4375 C 3.265625 -5.765625 2.84375 -6.078125 2.3125 -6.078125 C 1.328125 -6.078125 0.390625 -4.90625 0.390625 -2.9375 C 0.390625 -1.859375 0.703125 -0.859375 1.25 -0.3125 C 1.546875 -0.03125 1.890625 0.09375 2.265625 0.09375 Z M 2.265625 0.09375 "/>
</g>
<g id="glyph-2-0">
<path d="M 2 -0.84375 L 2 -3.265625 C 2 -3.6875 2.015625 -4.109375 2.03125 -4.203125 C 2.03125 -4.234375 2 -4.234375 1.984375 -4.234375 C 1.59375 -4 1.234375 -3.828125 0.625 -3.546875 C 0.625 -3.453125 0.65625 -3.390625 0.71875 -3.359375 C 1.03125 -3.484375 1.203125 -3.53125 1.328125 -3.53125 C 1.4375 -3.53125 1.46875 -3.359375 1.46875 -3.125 L 1.46875 -0.84375 C 1.46875 -0.265625 1.28125 -0.234375 0.796875 -0.21875 C 0.75 -0.171875 0.75 -0.03125 0.796875 0.015625 C 1.140625 0 1.375 0 1.765625 0 C 2.09375 0 2.265625 0 2.609375 0.015625 C 2.65625 -0.03125 2.65625 -0.171875 2.609375 -0.21875 C 2.125 -0.234375 2 -0.265625 2 -0.84375 Z M 2 -0.84375 "/>
</g>
<g id="glyph-2-1">
<path d="M 0.421875 -3.265625 C 0.421875 -3.109375 0.5625 -2.984375 0.703125 -2.984375 C 0.828125 -2.984375 1.03125 -3.109375 1.03125 -3.265625 C 1.03125 -3.328125 1.015625 -3.359375 1 -3.421875 C 0.984375 -3.46875 0.953125 -3.53125 0.953125 -3.578125 C 0.953125 -3.75 1.125 -4 1.640625 -4 C 1.890625 -4 2.25 -3.828125 2.25 -3.15625 C 2.25 -2.71875 2.078125 -2.359375 1.671875 -1.9375 L 1.15625 -1.421875 C 0.46875 -0.734375 0.359375 -0.390625 0.359375 0.015625 C 0.359375 0.015625 0.71875 0 0.9375 0 L 2.15625 0 C 2.390625 0 2.703125 0.015625 2.703125 0.015625 C 2.796875 -0.359375 2.859375 -0.875 2.875 -1.09375 C 2.828125 -1.125 2.734375 -1.140625 2.671875 -1.125 C 2.546875 -0.625 2.4375 -0.453125 2.1875 -0.453125 L 0.9375 -0.453125 C 0.9375 -0.78125 1.421875 -1.265625 1.453125 -1.296875 L 2.15625 -1.96875 C 2.5625 -2.359375 2.859375 -2.65625 2.859375 -3.1875 C 2.859375 -3.9375 2.25 -4.25 1.671875 -4.25 C 0.90625 -4.25 0.421875 -3.671875 0.421875 -3.265625 Z M 0.421875 -3.265625 "/>
</g>
</g>
<clipPath id="clip-0">
<path clip-rule="nonzero" d="M 0 0 L 263.960938 0 L 263.960938 241.335938 L 0 241.335938 Z M 0 0 "/>
</clipPath>
</defs>
<g clip-path="url(#clip-0)">
<path fill-rule="nonzero" fill="rgb(95.292664%, 95.684814%, 95.684814%)" fill-opacity="1" d="M 0 233.367188 L 0 7.96875 C 0 3.566406 3.566406 -0.00390625 7.96875 -0.00390625 L 255.992188 -0.00390625 C 260.394531 -0.00390625 263.960938 3.566406 263.960938 7.96875 L 263.960938 233.367188 C 263.960938 237.769531 260.394531 241.335938 255.992188 241.335938 L 7.96875 241.335938 C 3.566406 241.335938 0 237.769531 0 233.367188 Z M 0 233.367188 "/>
</g>
<path fill="none" stroke-width="0.3985" stroke-linecap="butt" stroke-linejoin="miter" stroke="rgb(75%, 75%, 75%)" stroke-opacity="1" stroke-miterlimit="10" d="M 62.308156 -0.00171875 L 62.308156 181.935781 M 101.245656 -0.00171875 L 101.245656 181.935781 M 140.187062 -0.00171875 L 140.187062 181.935781 M 179.128469 -0.00171875 L 179.128469 181.935781 " transform="matrix(1, 0, 0, -1, 30.602, 218.26)"/>
<path fill="none" stroke-width="0.3985" stroke-linecap="butt" stroke-linejoin="miter" stroke="rgb(75%, 75%, 75%)" stroke-opacity="1" stroke-miterlimit="10" d="M -0.0004375 21.404531 L 210.284719 21.404531 M -0.0004375 74.91625 L 210.284719 74.91625 M -0.0004375 101.670156 L 210.284719 101.670156 M -0.0004375 128.427969 L 210.284719 128.427969 M -0.0004375 155.181875 L 210.284719 155.181875 " transform="matrix(1, 0, 0, -1, 30.602, 218.26)"/>
<path fill="none" stroke-width="0.19925" stroke-linecap="butt" stroke-linejoin="miter" stroke="rgb(50%, 50%, 50%)" stroke-opacity="1" stroke-miterlimit="10" d="M 62.308156 46.033438 L 62.308156 50.287344 M 101.245656 46.033438 L 101.245656 50.287344 M 140.187062 46.033438 L 140.187062 50.287344 M 179.128469 46.033438 L 179.128469 50.287344 " transform="matrix(1, 0, 0, -1, 30.602, 218.26)"/>
<path fill="none" stroke-width="0.19925" stroke-linecap="butt" stroke-linejoin="miter" stroke="rgb(50%, 50%, 50%)" stroke-opacity="1" stroke-miterlimit="10" d="M 21.237844 21.404531 L 25.49175 21.404531 M 21.237844 74.91625 L 25.49175 74.91625 M 21.237844 101.670156 L 25.49175 101.670156 M 21.237844 128.427969 L 25.49175 128.427969 M 21.237844 155.181875 L 25.49175 155.181875 " transform="matrix(1, 0, 0, -1, 30.602, 218.26)"/>
<path fill="none" stroke-width="0.79701" stroke-linecap="butt" stroke-linejoin="miter" stroke="rgb(0%, 0%, 0%)" stroke-opacity="1" stroke-miterlimit="10" d="M -0.0004375 48.158438 L 207.694875 48.158438 " transform="matrix(1, 0, 0, -1, 30.602, 218.26)"/>
<path fill-rule="nonzero" fill="rgb(0%, 0%, 0%)" fill-opacity="1" d="M 240.886719 170.101562 L 236.742188 168.027344 L 238.296875 170.101562 L 236.742188 172.171875 "/>
<path fill="none" stroke-width="0.79701" stroke-linecap="butt" stroke-linejoin="miter" stroke="rgb(0%, 0%, 0%)" stroke-opacity="1" stroke-miterlimit="10" d="M 23.36675 -0.00171875 L 23.36675 179.345938 " transform="matrix(1, 0, 0, -1, 30.602, 218.26)"/>
<path fill-rule="nonzero" fill="rgb(0%, 0%, 0%)" fill-opacity="1" d="M 53.96875 36.324219 L 51.894531 40.46875 L 53.96875 38.914062 L 56.039062 40.46875 "/>
<g fill="rgb(0%, 0%, 0%)" fill-opacity="1">
<use xlink:href="#glyph-0-0" x="90.371" y="182.695"/>
</g>
<g fill="rgb(0%, 0%, 0%)" fill-opacity="1">
<use xlink:href="#glyph-0-1" x="129.312" y="182.717"/>
</g>
<g fill="rgb(0%, 0%, 0%)" fill-opacity="1">
<use xlink:href="#glyph-0-2" x="168.253" y="182.717"/>
</g>
<g fill="rgb(0%, 0%, 0%)" fill-opacity="1">
<use xlink:href="#glyph-0-3" x="207.194" y="182.717"/>
</g>
<g fill="rgb(0%, 0%, 0%)" fill-opacity="1">
<use xlink:href="#glyph-0-4" x="36.933" y="200.162"/>
<use xlink:href="#glyph-0-0" x="42.933" y="200.162"/>
</g>
<g fill="rgb(0%, 0%, 0%)" fill-opacity="1">
<use xlink:href="#glyph-0-0" x="42.933" y="146.651"/>
</g>
<g fill="rgb(0%, 0%, 0%)" fill-opacity="1">
<use xlink:href="#glyph-0-1" x="42.933" y="119.907"/>
</g>
<g fill="rgb(0%, 0%, 0%)" fill-opacity="1">
<use xlink:href="#glyph-0-2" x="42.933" y="93.108"/>
</g>
<g fill="rgb(0%, 0%, 0%)" fill-opacity="1">
<use xlink:href="#glyph-0-3" x="42.933" y="66.397"/>
</g>
<path fill="none" stroke-width="0.79701" stroke-linecap="butt" stroke-linejoin="miter" stroke="rgb(28.234863%, 28.625488%, 28.625488%)" stroke-opacity="1" stroke-dasharray="2.98883 2.98883" stroke-miterlimit="10" d="M 101.245656 2.674063 L 101.245656 181.935781 " transform="matrix(1, 0, 0, -1, 30.602, 218.26)"/>
<g fill="rgb(28.234863%, 28.625488%, 28.625488%)" fill-opacity="1">
<use xlink:href="#glyph-1-0" x="121.33" y="32.39"/>
</g>
<g fill="rgb(28.234863%, 28.625488%, 28.625488%)" fill-opacity="1">
<use xlink:href="#glyph-1-1" x="129.47944" y="32.39"/>
</g>
<g fill="rgb(28.234863%, 28.625488%, 28.625488%)" fill-opacity="1">
<use xlink:href="#glyph-1-2" x="137.728505" y="32.39"/>
</g>
<path fill="none" stroke-width="1.59404" stroke-linecap="butt" stroke-linejoin="miter" stroke="rgb(0%, 35.293579%, 58.036804%)" stroke-opacity="1" stroke-miterlimit="10" d="M 11.683156 162.939688 L 12.280812 161.049063 L 12.882375 159.177969 L 13.480031 157.314688 L 14.077687 155.467031 L 14.67925 153.631094 L 15.276906 151.806875 L 15.874562 149.994375 L 16.476125 148.1975 L 17.073781 146.408438 L 17.675344 144.638906 L 18.273 142.877188 L 18.870656 141.127188 L 19.472219 139.392813 L 20.069875 137.670156 L 20.667531 135.963125 L 21.269094 134.263906 L 21.86675 132.580313 L 22.464406 130.908438 L 23.065969 129.248281 L 23.663625 127.60375 L 24.265187 125.967031 L 24.862844 124.345938 L 25.4605 122.740469 L 26.062062 121.142813 L 26.659719 119.560781 L 27.257375 117.990469 L 27.858937 116.431875 L 28.456594 114.885 L 29.058156 113.35375 L 29.655812 111.834219 L 30.253469 110.326406 L 30.855031 108.834219 L 31.452687 107.349844 L 32.050344 105.881094 L 32.651906 104.424063 L 33.249562 102.982656 L 33.847219 101.549063 L 34.448781 100.131094 L 35.046437 98.724844 L 35.648 97.334219 L 36.245656 95.951406 L 36.843312 94.584219 L 37.444875 93.22875 L 38.042531 91.885 L 38.640187 90.556875 L 39.24175 89.240469 L 39.839406 87.935781 L 40.440969 86.642813 L 41.038625 85.365469 L 41.636281 84.095938 L 42.237844 82.842031 L 42.8355 81.60375 L 43.433156 80.373281 L 44.034719 79.158438 L 44.632375 77.955313 L 45.233937 76.763906 L 45.831594 75.588125 L 46.42925 74.420156 L 47.030812 73.267813 L 47.628469 72.131094 L 48.226125 71.002188 L 48.827687 69.888906 L 49.425344 68.787344 L 50.023 67.6975 L 50.624562 66.619375 L 51.222219 65.556875 L 51.823781 64.506094 L 52.421437 63.467031 L 53.019094 62.439688 L 53.620656 61.427969 L 54.218312 60.427969 L 54.815969 59.439688 L 55.417531 58.463125 L 56.015187 57.502188 L 56.61675 56.552969 L 57.214406 55.615469 L 57.812062 54.689688 L 58.413625 53.775625 L 59.011281 52.877188 L 59.608937 51.990469 L 60.2105 51.119375 L 60.808156 50.256094 L 61.405812 49.408438 L 62.007375 48.5725 L 62.605031 47.748281 L 63.206594 46.939688 L 63.80425 46.138906 L 64.401906 45.35375 L 65.003469 44.584219 L 65.601125 43.8225 L 66.198781 43.076406 L 66.800344 42.342031 L 67.398 41.619375 L 67.999562 40.908438 L 68.597219 40.213125 L 69.194875 39.529531 L 69.796437 38.857656 L 70.394094 38.201406 L 70.99175 37.552969 L 71.593312 36.920156 L 72.190969 36.299063 L 72.792531 35.693594 L 73.390187 35.095938 L 73.987844 34.513906 L 74.589406 33.943594 L 75.187062 33.385 L 75.784719 32.842031 L 76.386281 32.310781 L 76.983937 31.79125 L 77.581594 31.283438 L 78.183156 30.79125 L 78.780812 30.310781 L 79.382375 29.842031 L 79.980031 29.385 L 80.577687 28.939688 L 81.17925 28.51 L 81.776906 28.092031 L 82.374562 27.685781 L 82.976125 27.295156 L 83.573781 26.91625 L 84.175344 26.549063 L 84.773 26.193594 L 85.370656 25.849844 L 85.972219 25.521719 L 86.569875 25.205313 L 87.167531 24.900625 L 87.769094 24.611563 L 88.36675 24.330313 L 88.964406 24.064688 L 89.565969 23.810781 L 90.163625 23.5725 L 90.765187 23.342031 L 91.362844 23.127188 L 91.9605 22.924063 L 92.562062 22.736563 L 93.159719 22.556875 L 93.757375 22.392813 L 94.358937 22.240469 L 94.956594 22.10375 L 95.558156 21.974844 L 96.155812 21.861563 L 96.753469 21.76 L 97.355031 21.670156 L 97.952687 21.595938 L 98.550344 21.533438 L 99.151906 21.482656 L 99.749562 21.443594 L 100.351125 21.420156 L 100.948781 21.404531 L 101.546437 21.404531 L 102.148 21.420156 L 102.745656 21.443594 L 103.343312 21.482656 L 103.944875 21.533438 L 104.542531 21.595938 L 105.140187 21.670156 L 105.74175 21.76 L 106.339406 21.861563 L 106.940969 21.974844 L 107.538625 22.10375 L 108.136281 22.240469 L 108.737844 22.392813 L 109.3355 22.556875 L 109.933156 22.736563 L 110.534719 22.924063 L 111.132375 23.127188 L 111.733937 23.342031 L 112.331594 23.5725 L 112.92925 23.810781 L 113.530812 24.064688 L 114.128469 24.330313 L 114.726125 24.611563 L 115.327687 24.900625 L 115.925344 25.205313 L 116.523 25.521719 L 117.124562 25.849844 L 117.722219 26.193594 L 118.323781 26.549063 L 118.921437 26.91625 L 119.519094 27.295156 L 120.120656 27.685781 L 120.718312 28.092031 L 121.315969 28.51 L 121.917531 28.939688 L 122.515187 29.385 L 123.11675 29.842031 L 123.714406 30.310781 L 124.312062 30.79125 L 124.913625 31.283438 L 125.511281 31.79125 L 126.108937 32.310781 L 126.7105 32.842031 L 127.308156 33.385 L 127.905812 33.943594 L 128.507375 34.513906 L 129.105031 35.095938 L 129.706594 35.693594 L 130.30425 36.299063 L 130.901906 36.920156 L 131.503469 37.552969 L 132.101125 38.201406 L 132.698781 38.857656 L 133.300344 39.529531 L 133.898 40.213125 L 134.499562 40.908438 L 135.097219 41.619375 L 135.694875 42.342031 L 136.296437 43.076406 L 136.894094 43.8225 L 137.49175 44.584219 L 138.093312 45.35375 L 138.690969 46.138906 L 139.292531 46.939688 L 139.890187 47.748281 L 140.487844 48.5725 L 141.089406 49.408438 L 141.687062 50.256094 L 142.284719 51.119375 L 142.886281 51.990469 L 143.483937 52.877188 L 144.081594 53.775625 L 144.683156 54.689688 L 145.280812 55.615469 L 145.882375 56.552969 L 146.480031 57.502188 L 147.077687 58.463125 L 147.67925 59.439688 L 148.276906 60.427969 L 148.874562 61.427969 L 149.476125 62.439688 L 150.073781 63.467031 L 150.675344 64.506094 L 151.273 65.556875 L 151.870656 66.619375 L 152.472219 67.6975 L 153.069875 68.787344 L 153.667531 69.888906 L 154.269094 71.002188 L 154.86675 72.131094 L 155.464406 73.267813 L 156.065969 74.420156 L 156.663625 75.588125 L 157.265187 76.763906 L 157.862844 77.955313 L 158.4605 79.158438 L 159.062062 80.373281 L 159.659719 81.60375 L 160.257375 82.842031 L 160.858937 84.095938 L 161.456594 85.365469 L 162.058156 86.642813 L 162.655812 87.935781 L 163.253469 89.240469 L 163.855031 90.556875 L 164.452687 91.885 L 165.050344 93.22875 L 165.651906 94.584219 L 166.249562 95.951406 L 166.851125 97.334219 L 167.448781 98.724844 L 168.046437 100.131094 L 168.648 101.549063 L 169.245656 102.982656 L 169.843312 104.424063 L 170.444875 105.881094 L 171.042531 107.349844 L 171.640187 108.834219 L 172.24175 110.326406 L 172.839406 111.834219 L 173.440969 113.35375 L 174.038625 114.885 L 174.636281 116.431875 L 175.237844 117.990469 L 175.8355 119.560781 L 176.433156 121.142813 L 177.034719 122.740469 L 177.632375 124.345938 L 178.233937 125.967031 L 178.831594 127.60375 L 179.42925 129.248281 L 180.030812 130.908438 L 180.628469 132.580313 L 181.226125 134.263906 L 181.827687 135.963125 L 182.425344 137.670156 L 183.023 139.392813 L 183.624562 141.127188 L 184.222219 142.877188 L 184.823781 144.638906 L 185.421437 146.408438 L 186.019094 148.1975 L 186.620656 149.994375 L 187.218312 151.806875 L 187.815969 153.631094 L 188.417531 155.467031 L 189.015187 157.314688 L 189.61675 159.177969 L 190.214406 161.049063 L 190.812062 162.939688 " transform="matrix(1, 0, 0, -1, 30.602, 218.26)"/>
<g fill="rgb(28.234863%, 28.625488%, 28.625488%)" fill-opacity="1">
<use xlink:href="#glyph-1-3" x="137.631" y="207.964"/>
</g>
<g fill="rgb(28.234863%, 28.625488%, 28.625488%)" fill-opacity="1">
<use xlink:href="#glyph-1-1" x="145.192644" y="207.964"/>
</g>
<g fill="rgb(28.234863%, 28.625488%, 28.625488%)" fill-opacity="1">
<use xlink:href="#glyph-1-4" x="153.44171" y="207.964"/>
<use xlink:href="#glyph-1-2" x="156.98841" y="207.964"/>
<use xlink:href="#glyph-1-5" x="161.621037" y="207.964"/>
</g>
<g fill="rgb(28.234863%, 28.625488%, 28.625488%)" fill-opacity="1">
<use xlink:href="#glyph-1-6" x="167.130377" y="207.964"/>
<use xlink:href="#glyph-1-7" x="172.609829" y="207.964"/>
<use xlink:href="#glyph-1-8" x="177.242457" y="207.964"/>
</g>
<g fill="rgb(28.234863%, 28.625488%, 28.625488%)" fill-opacity="1">
<use xlink:href="#glyph-1-0" x="80.957" y="181.331"/>
</g>
<g fill="rgb(28.234863%, 28.625488%, 28.625488%)" fill-opacity="1">
<use xlink:href="#glyph-2-0" x="85.54" y="183.423"/>
</g>
<g fill="rgb(28.234863%, 28.625488%, 28.625488%)" fill-opacity="1">
<use xlink:href="#glyph-1-1" x="91.979" y="181.331"/>
</g>
<g fill="rgb(28.234863%, 28.625488%, 28.625488%)" fill-opacity="1">
<use xlink:href="#glyph-1-7" x="100.218103" y="181.331"/>
</g>
<g fill="rgb(28.234863%, 28.625488%, 28.625488%)" fill-opacity="1">
<use xlink:href="#glyph-1-0" x="158.839" y="181.351"/>
</g>
<g fill="rgb(28.234863%, 28.625488%, 28.625488%)" fill-opacity="1">
<use xlink:href="#glyph-2-1" x="163.422" y="183.443"/>
</g>
<g fill="rgb(28.234863%, 28.625488%, 28.625488%)" fill-opacity="1">
<use xlink:href="#glyph-1-1" x="169.86" y="181.351"/>
</g>
<g fill="rgb(28.234863%, 28.625488%, 28.625488%)" fill-opacity="1">
<use xlink:href="#glyph-1-9" x="178.099103" y="181.351"/>
</g>
<g fill="rgb(28.234863%, 28.625488%, 28.625488%)" fill-opacity="1">
<use xlink:href="#glyph-1-4" x="26.313" y="92.545"/>
<use xlink:href="#glyph-1-10" x="29.8597" y="92.545"/>
<use xlink:href="#glyph-1-5" x="34.492327" y="92.545"/>
</g>
<g fill="rgb(28.234863%, 28.625488%, 28.625488%)" fill-opacity="1">
<use xlink:href="#glyph-1-9" x="40.001667" y="92.545"/>
<use xlink:href="#glyph-1-8" x="44.634295" y="92.545"/>
</g>
<path fill="none" stroke-width="0.3985" stroke-linecap="butt" stroke-linejoin="miter" stroke="rgb(28.234863%, 28.625488%, 28.625488%)" stroke-opacity="1" stroke-dasharray="2.98883 2.98883" stroke-miterlimit="10" d="M 23.36675 21.404531 L 101.245656 21.404531 " transform="matrix(1, 0, 0, -1, 30.602, 218.26)"/>
<path fill-rule="nonzero" fill="rgb(0%, 35.293579%, 58.036804%)" fill-opacity="1" stroke-width="0.3985" stroke-linecap="butt" stroke-linejoin="miter" stroke="rgb(0%, 35.293579%, 58.036804%)" stroke-opacity="1" stroke-miterlimit="10" d="M 104.733937 21.404531 C 104.733937 23.330313 103.175344 24.892813 101.249562 24.892813 C 99.323781 24.892813 97.761281 23.330313 97.761281 21.404531 C 97.761281 19.47875 99.323781 17.91625 101.249562 17.91625 C 103.175344 17.91625 104.733937 19.47875 104.733937 21.404531 Z M 104.733937 21.404531 " transform="matrix(1, 0, 0, -1, 30.602, 218.26)"/>
<path fill-rule="nonzero" fill="rgb(0%, 35.293579%, 58.036804%)" fill-opacity="1" stroke-width="0.3985" stroke-linecap="butt" stroke-linejoin="miter" stroke="rgb(0%, 35.293579%, 58.036804%)" stroke-opacity="1" stroke-miterlimit="10" d="M 65.792531 48.158438 C 65.792531 50.084219 64.233937 51.646719 62.308156 51.646719 C 60.382375 51.646719 58.819875 50.084219 58.819875 48.158438 C 58.819875 46.232656 60.382375 44.670156 62.308156 44.670156 C 64.233937 44.670156 65.792531 46.232656 65.792531 48.158438 Z M 65.792531 48.158438 " transform="matrix(1, 0, 0, -1, 30.602, 218.26)"/>
<path fill-rule="nonzero" fill="rgb(0%, 35.293579%, 58.036804%)" fill-opacity="1" stroke-width="0.3985" stroke-linecap="butt" stroke-linejoin="miter" stroke="rgb(0%, 35.293579%, 58.036804%)" stroke-opacity="1" stroke-miterlimit="10" d="M 143.675344 48.158438 C 143.675344 50.084219 142.11675 51.646719 140.190969 51.646719 C 138.265187 51.646719 136.702687 50.084219 136.702687 48.158438 C 136.702687 46.232656 138.265187 44.670156 140.190969 44.670156 C 142.11675 44.670156 143.675344 46.232656 143.675344 48.158438 Z M 143.675344 48.158438 " transform="matrix(1, 0, 0, -1, 30.602, 218.26)"/>
<path fill-rule="nonzero" fill="rgb(0%, 35.293579%, 58.036804%)" fill-opacity="1" stroke-width="0.3985" stroke-linecap="butt" stroke-linejoin="miter" stroke="rgb(0%, 35.293579%, 58.036804%)" stroke-opacity="1" stroke-miterlimit="10" d="M 26.851125 128.424063 C 26.851125 130.349844 25.292531 131.912344 23.36675 131.912344 C 21.440969 131.912344 19.878469 130.349844 19.878469 128.424063 C 19.878469 126.498281 21.440969 124.935781 23.36675 124.935781 C 25.292531 124.935781 26.851125 126.498281 26.851125 128.424063 Z M 26.851125 128.424063 " transform="matrix(1, 0, 0, -1, 30.602, 218.26)"/>
<g fill="rgb(0%, 0%, 0%)" fill-opacity="1">
<use xlink:href="#glyph-0-5" x="232.03" y="166.157"/>
</g>
<g fill="rgb(0%, 0%, 0%)" fill-opacity="1">
<use xlink:href="#glyph-0-6" x="57.802" y="44.95"/>
</g>
</svg>
