<?xml version="1.0" encoding="UTF-8"?>
<svg xmlns="http://www.w3.org/2000/svg" xmlns:xlink="http://www.w3.org/1999/xlink" width="352.99pt" height="276.784pt" viewBox="0 0 352.99 276.784">
<defs>
<g>
<g id="glyph-0-0">
<path d="M 11.015625 -7.171875 L 8.796875 -7.171875 L 8.71875 -6.84375 C 9.203125 -6.84375 9.328125 -6.75 9.328125 -6.53125 C 9.328125 -6.21875 9.078125 -5.796875 8.84375 -5.4375 L 6.515625 -1.78125 L 6.46875 -1.78125 L 6.421875 -2.890625 L 6.15625 -5.828125 C 6.109375 -6.65625 6.3125 -6.84375 7.125 -6.84375 L 7.171875 -7.171875 L 4.390625 -7.171875 L 4.34375 -6.84375 C 4.96875 -6.84375 5.078125 -6.75 5.15625 -5.8125 L 5.234375 -4.953125 L 3.03125 -1.75 L 2.96875 -1.75 L 2.90625 -2.796875 L 2.625 -5.875 C 2.609375 -6.078125 2.609375 -6.25 2.609375 -6.375 C 2.609375 -6.390625 2.609375 -6.40625 2.609375 -6.4375 C 2.625 -6.71875 2.84375 -6.84375 3.46875 -6.84375 L 3.515625 -7.171875 L 0.796875 -7.171875 L 0.734375 -6.84375 C 1.359375 -6.84375 1.5625 -6.5625 1.625 -5.859375 L 2.15625 0.0625 L 2.46875 0.0625 L 5.265625 -4.171875 L 5.3125 -4.171875 L 5.671875 0.0625 L 5.984375 0.0625 L 9.828125 -6.078125 C 10.203125 -6.640625 10.453125 -6.828125 10.984375 -6.84375 Z M 11.015625 -7.171875 "/>
</g>
<g id="glyph-0-1">
<path d="M 4.5 -3.8125 C 5.546875 -4.046875 6.40625 -4.578125 6.40625 -5.765625 C 6.40625 -6.546875 5.890625 -7.171875 4.046875 -7.171875 L 1.28125 -7.171875 L 1.21875 -6.84375 C 2.03125 -6.84375 2.234375 -6.71875 2.046875 -5.84375 L 1.125 -1.359375 C 0.9375 -0.453125 0.75 -0.328125 -0.078125 -0.328125 L -0.140625 0 L 3 0 C 4.71875 0 6.0625 -0.796875 6.0625 -2.25 C 6.0625 -3.171875 5.359375 -3.625 4.5 -3.75 Z M 2.546875 -3.515625 L 3.1875 -3.515625 C 4.09375 -3.515625 4.9375 -3.234375 4.9375 -2.21875 C 4.9375 -0.609375 3.578125 -0.390625 2.578125 -0.390625 C 2.3125 -0.390625 2.171875 -0.40625 1.921875 -0.421875 Z M 2.625 -3.953125 L 3.203125 -6.71875 C 3.421875 -6.734375 3.515625 -6.75 3.734375 -6.75 C 4.96875 -6.75 5.328125 -6.265625 5.328125 -5.6875 C 5.328125 -4.609375 4.765625 -3.953125 3.265625 -3.953125 Z M 2.625 -3.953125 "/>
</g>
<g id="glyph-0-2">
<path d="M 5.328125 2.484375 L 1.3125 -7.921875 L 0.515625 -7.921875 L 4.53125 2.484375 Z M 5.328125 2.484375 "/>
</g>
<g id="glyph-0-3">
<path d="M 7.171875 -3.5625 L 7.171875 -4.3125 L 0.671875 -4.3125 L 0.671875 -3.5625 Z M 7.171875 -1.34375 L 7.171875 -2.078125 L 0.671875 -2.078125 L 0.671875 -1.34375 Z M 7.171875 -1.34375 "/>
</g>
<g id="glyph-0-4">
<path d="M -0.921875 -6.046875 L -0.921875 -6.65625 L -4.09375 -6.65625 L -4.09375 -6.046875 Z M -0.921875 -6.046875 "/>
</g>
<g id="glyph-0-5">
<path d="M 0.265625 -2.671875 C 0.78125 -2.625 1.25 -2.546875 1.25 -1.890625 C 1.25 -1.375 1.046875 -0.09375 1.046875 0.5625 C 1.046875 1.828125 2 2.15625 3.078125 2.15625 L 3.078125 1.796875 C 2.453125 1.796875 1.859375 1.640625 1.859375 0.703125 C 1.859375 0.140625 2.015625 -0.734375 2.015625 -1.40625 C 2.015625 -2.3125 1.578125 -2.6875 1.015625 -2.90625 L 1.015625 -2.984375 C 1.578125 -3.203125 2.015625 -3.578125 2.015625 -4.484375 C 2.015625 -5.140625 1.859375 -6.015625 1.859375 -6.578125 C 1.859375 -7.515625 2.453125 -7.671875 3.078125 -7.671875 L 3.078125 -8.03125 C 2 -8.03125 1.046875 -7.703125 1.046875 -6.453125 C 1.046875 -5.796875 1.25 -4.515625 1.25 -4 C 1.25 -3.34375 0.78125 -3.265625 0.265625 -3.21875 Z M 0.265625 -2.671875 "/>
</g>
<g id="glyph-0-6">
<path d="M 0.765625 1.4375 C 1.203125 1.25 2.109375 0.875 2.109375 -0.359375 C 2.109375 -0.953125 1.828125 -1.3125 1.28125 -1.3125 C 0.84375 -1.3125 0.59375 -1.03125 0.59375 -0.671875 C 0.59375 -0.359375 0.78125 -0.09375 1.203125 -0.09375 C 1.3125 -0.09375 1.421875 -0.109375 1.53125 -0.15625 C 1.53125 0.734375 1.03125 1 0.625 1.171875 Z M 0.765625 1.4375 "/>
</g>
<g id="glyph-0-7">
<path d="M 3.296875 -3.21875 C 2.78125 -3.265625 2.3125 -3.34375 2.3125 -4 C 2.3125 -4.515625 2.515625 -5.796875 2.515625 -6.453125 C 2.515625 -7.703125 1.5625 -8.03125 0.484375 -8.03125 L 0.484375 -7.671875 C 1.109375 -7.671875 1.71875 -7.515625 1.71875 -6.578125 C 1.71875 -6.015625 1.546875 -5.140625 1.546875 -4.484375 C 1.546875 -3.578125 2 -3.203125 2.546875 -2.984375 L 2.546875 -2.90625 C 2 -2.6875 1.546875 -2.3125 1.546875 -1.40625 C 1.546875 -0.734375 1.71875 0.140625 1.71875 0.703125 C 1.71875 1.640625 1.109375 1.796875 0.484375 1.796875 L 0.484375 2.15625 C 1.5625 2.15625 2.515625 1.828125 2.515625 0.5625 C 2.515625 -0.09375 2.3125 -1.375 2.3125 -1.890625 C 2.3125 -2.546875 2.78125 -2.625 3.296875 -2.671875 Z M 3.296875 -3.21875 "/>
</g>
<g id="glyph-1-0">
<path d="M 5.90625 -6.453125 L 5.90625 -7.265625 L 0.203125 -7.265625 L 0.203125 -6.453125 L 2.609375 -6.453125 L 2.609375 0 L 3.53125 0 L 3.53125 -6.453125 Z M 5.90625 -6.453125 "/>
</g>
<g id="glyph-1-1">
<path d="M 4.8125 0 L 4.8125 -5.21875 L 3.984375 -5.21875 L 3.984375 -2.34375 C 3.984375 -1.28125 3.421875 -0.578125 2.546875 -0.578125 C 1.890625 -0.578125 1.46875 -0.984375 1.46875 -1.609375 L 1.46875 -5.21875 L 0.640625 -5.21875 L 0.640625 -1.28125 C 0.640625 -0.40625 1.296875 0.15625 2.3125 0.15625 C 3.078125 0.15625 3.5625 -0.125 4.0625 -0.8125 L 4.0625 0 Z M 4.8125 0 "/>
</g>
<g id="glyph-1-2">
<path d="M 5.109375 -2.375 C 5.109375 -3.125 5.046875 -3.609375 4.90625 -4 C 4.5625 -4.859375 3.765625 -5.375 2.796875 -5.375 C 1.328125 -5.375 0.40625 -4.296875 0.40625 -2.578125 C 0.40625 -0.875 1.3125 0.15625 2.765625 0.15625 C 3.96875 0.15625 4.796875 -0.53125 5 -1.578125 L 4.171875 -1.578125 C 3.9375 -0.890625 3.46875 -0.625 2.796875 -0.625 C 1.9375 -0.625 1.28125 -1.171875 1.265625 -2.375 Z M 4.234375 -3.109375 C 4.234375 -3.109375 4.234375 -3.078125 4.21875 -3.046875 L 1.28125 -3.046875 C 1.359375 -3.984375 1.9375 -4.609375 2.78125 -4.609375 C 3.59375 -4.609375 4.234375 -3.921875 4.234375 -3.109375 Z M 4.234375 -3.109375 "/>
</g>
<g id="glyph-1-3">
<path d="M 4.578125 -1.46875 C 4.578125 -2.25 4.140625 -2.625 3.09375 -2.875 L 2.296875 -3.078125 C 1.625 -3.234375 1.328125 -3.453125 1.328125 -3.8125 C 1.328125 -4.296875 1.765625 -4.609375 2.4375 -4.609375 C 3.109375 -4.609375 3.46875 -4.3125 3.484375 -3.765625 L 4.359375 -3.765625 C 4.359375 -4.796875 3.671875 -5.375 2.46875 -5.375 C 1.25 -5.375 0.46875 -4.75 0.46875 -3.78125 C 0.46875 -2.953125 0.890625 -2.578125 2.125 -2.265625 L 2.90625 -2.078125 C 3.484375 -1.9375 3.703125 -1.78125 3.703125 -1.390625 C 3.703125 -0.90625 3.21875 -0.625 2.5 -0.625 C 1.75 -0.625 1.328125 -0.796875 1.21875 -1.59375 L 0.34375 -1.59375 C 0.375 -0.390625 1.0625 0.15625 2.421875 0.15625 C 3.734375 0.15625 4.578125 -0.453125 4.578125 -1.46875 Z M 4.578125 -1.46875 "/>
</g>
<g id="glyph-1-4">
<path d="M 4.9375 0 L 4.9375 -7.265625 L 4.109375 -7.265625 L 4.109375 -4.5625 C 3.765625 -5.09375 3.203125 -5.375 2.5 -5.375 C 1.140625 -5.375 0.265625 -4.328125 0.265625 -2.65625 C 0.265625 -0.890625 1.125 0.15625 2.53125 0.15625 C 3.25 0.15625 3.75 -0.125 4.203125 -0.765625 L 4.203125 0 Z M 4.109375 -2.59375 C 4.109375 -1.390625 3.53125 -0.625 2.65625 -0.625 C 1.734375 -0.625 1.125 -1.390625 1.125 -2.609375 C 1.125 -3.828125 1.734375 -4.59375 2.640625 -4.59375 C 3.53125 -4.59375 4.109375 -3.796875 4.109375 -2.59375 Z M 4.109375 -2.59375 "/>
</g>
<g id="glyph-1-5">
<path d="M 5.328125 -0.015625 L 5.328125 -0.640625 C 5.25 -0.625 5.203125 -0.625 5.15625 -0.625 C 4.859375 -0.625 4.703125 -0.78125 4.703125 -1.03125 L 4.703125 -3.953125 C 4.703125 -4.875 4.03125 -5.375 2.734375 -5.375 C 1.46875 -5.375 0.703125 -4.890625 0.640625 -3.671875 L 1.484375 -3.671875 C 1.5625 -4.3125 1.9375 -4.609375 2.71875 -4.609375 C 3.453125 -4.609375 3.875 -4.328125 3.875 -3.828125 L 3.875 -3.609375 C 3.875 -3.265625 3.671875 -3.109375 3.015625 -3.03125 C 1.828125 -2.875 1.65625 -2.84375 1.328125 -2.71875 C 0.734375 -2.46875 0.421875 -2 0.421875 -1.359375 C 0.421875 -0.40625 1.078125 0.15625 2.140625 0.15625 C 2.796875 0.15625 3.453125 -0.125 3.90625 -0.625 C 4 -0.21875 4.359375 0.0625 4.765625 0.0625 C 4.9375 0.0625 5.0625 0.046875 5.328125 -0.015625 Z M 3.875 -1.796875 C 3.875 -1.0625 3.125 -0.578125 2.3125 -0.578125 C 1.671875 -0.578125 1.28125 -0.8125 1.28125 -1.375 C 1.28125 -1.921875 1.65625 -2.15625 2.546875 -2.296875 C 3.421875 -2.40625 3.59375 -2.453125 3.875 -2.578125 Z M 3.875 -1.796875 "/>
</g>
<g id="glyph-1-6">
<path d="M 4.765625 -5.21875 L 3.875 -5.21875 L 2.421875 -1.15625 L 1.09375 -5.21875 L 0.203125 -5.21875 L 1.96875 0.015625 L 1.640625 0.84375 C 1.5 1.21875 1.328125 1.359375 0.984375 1.359375 C 0.859375 1.359375 0.71875 1.328125 0.53125 1.296875 L 0.53125 2.046875 C 0.703125 2.140625 0.875 2.171875 1.09375 2.171875 C 1.6875 2.171875 2.15625 1.84375 2.4375 1.09375 Z M 4.765625 -5.21875 "/>
</g>
<g id="glyph-1-7">
<path d="M 4.84375 0 L 4.84375 -3.953125 C 4.84375 -4.828125 4.21875 -5.375 3.203125 -5.375 C 2.46875 -5.375 2.015625 -5.140625 1.53125 -4.5 L 1.53125 -7.265625 L 0.703125 -7.265625 L 0.703125 0 L 1.53125 0 L 1.53125 -2.875 C 1.53125 -3.953125 2.078125 -4.640625 2.9375 -4.640625 C 3.53125 -4.640625 4.015625 -4.3125 4.015625 -3.625 L 4.015625 0 Z M 4.84375 0 "/>
</g>
<g id="glyph-1-8">
<path d="M 3.203125 -4.5 L 3.203125 -5.34375 C 3.0625 -5.359375 2.984375 -5.375 2.875 -5.375 C 2.34375 -5.375 1.9375 -5.046875 1.453125 -4.28125 L 1.453125 -5.21875 L 0.703125 -5.21875 L 0.703125 0 L 1.53125 0 L 1.53125 -2.71875 C 1.53125 -3.890625 1.90625 -4.46875 3.203125 -4.5 Z M 3.203125 -4.5 "/>
</g>
<g id="glyph-1-9">
<path d="M 6.1875 -2 C 6.1875 -2.890625 5.625 -3.546875 4.640625 -3.8125 L 2.828125 -4.3125 C 1.9375 -4.53125 1.625 -4.828125 1.625 -5.390625 C 1.625 -6.125 2.265625 -6.671875 3.25 -6.671875 C 4.40625 -6.671875 5.0625 -6.140625 5.0625 -5.1875 L 5.9375 -5.1875 C 5.9375 -6.625 4.953125 -7.453125 3.28125 -7.453125 C 1.6875 -7.453125 0.703125 -6.5625 0.703125 -5.25 C 0.703125 -4.359375 1.171875 -3.8125 2.125 -3.5625 L 3.921875 -3.078125 C 4.84375 -2.84375 5.265625 -2.46875 5.265625 -1.90625 C 5.265625 -1.109375 4.671875 -0.640625 3.40625 -0.640625 C 2.03125 -0.640625 1.359375 -1.328125 1.359375 -2.359375 L 0.484375 -2.359375 C 0.484375 -0.640625 1.640625 0.171875 3.34375 0.171875 C 5.1875 0.171875 6.1875 -0.703125 6.1875 -2 Z M 6.1875 -2 "/>
</g>
<g id="glyph-1-10">
<path d="M 2.53125 0 L 2.53125 -0.703125 C 2.421875 -0.671875 2.296875 -0.65625 2.140625 -0.65625 C 1.78125 -0.65625 1.671875 -0.75 1.671875 -1.125 L 1.671875 -4.546875 L 2.53125 -4.546875 L 2.53125 -5.21875 L 1.671875 -5.21875 L 1.671875 -6.65625 L 0.84375 -6.65625 L 0.84375 -5.21875 L 0.140625 -5.21875 L 0.140625 -4.546875 L 0.84375 -4.546875 L 0.84375 -0.75 C 0.84375 -0.234375 1.203125 0.0625 1.859375 0.0625 C 2.046875 0.0625 2.25 0.046875 2.53125 0 Z M 2.53125 0 "/>
</g>
<g id="glyph-1-11">
<path d="M 7.59375 0 L 7.59375 -7.265625 L 6.296875 -7.265625 L 4.1875 -0.9375 L 2.03125 -7.265625 L 0.75 -7.265625 L 0.75 0 L 1.625 0 L 1.625 -6.09375 L 3.6875 0 L 4.671875 0 L 6.703125 -6.09375 L 6.703125 0 Z M 7.59375 0 "/>
</g>
<g id="glyph-1-12">
<path d="M 5.078125 -2.578125 C 5.078125 -4.375 4.21875 -5.375 2.71875 -5.375 C 1.25 -5.375 0.359375 -4.359375 0.359375 -2.609375 C 0.359375 -0.859375 1.234375 0.15625 2.71875 0.15625 C 4.1875 0.15625 5.078125 -0.859375 5.078125 -2.578125 Z M 4.21875 -2.578125 C 4.21875 -1.359375 3.640625 -0.625 2.71875 -0.625 C 1.796875 -0.625 1.21875 -1.34375 1.21875 -2.609375 C 1.21875 -3.875 1.796875 -4.609375 2.71875 -4.609375 C 3.65625 -4.609375 4.21875 -3.875 4.21875 -2.578125 Z M 4.21875 -2.578125 "/>
</g>
<g id="glyph-1-13">
<path d="M 4.859375 0 L 4.859375 -3.953125 C 4.859375 -4.8125 4.203125 -5.375 3.203125 -5.375 C 2.421875 -5.375 1.921875 -5.078125 1.46875 -4.34375 L 1.46875 -5.21875 L 0.703125 -5.21875 L 0.703125 0 L 1.53125 0 L 1.53125 -2.875 C 1.53125 -3.953125 2.109375 -4.640625 2.953125 -4.640625 C 3.609375 -4.640625 4.03125 -4.25 4.03125 -3.625 L 4.03125 0 Z M 4.859375 0 "/>
</g>
<g id="glyph-1-14">
<path d="M 9.265625 -7.265625 L 8.21875 -7.265625 L 6.890625 -1.359375 L 5.234375 -7.265625 L 4.234375 -7.265625 L 2.625 -1.359375 L 1.25 -7.265625 L 0.21875 -7.265625 L 2.078125 0 L 3.09375 0 L 4.71875 -5.96875 L 6.40625 0 L 7.421875 0 Z M 9.265625 -7.265625 "/>
</g>
<g id="glyph-1-15">
<path d="M 5.765625 -6.453125 L 5.765625 -7.265625 L 0.890625 -7.265625 L 0.890625 0 L 1.828125 0 L 1.828125 -3.3125 L 5.296875 -3.3125 L 5.296875 -4.125 L 1.828125 -4.125 L 1.828125 -6.453125 Z M 5.765625 -6.453125 "/>
</g>
<g id="glyph-1-16">
<path d="M 1.53125 0 L 1.53125 -5.21875 L 0.703125 -5.21875 L 0.703125 0 Z M 1.640625 -6.015625 L 1.640625 -7.046875 L 0.59375 -7.046875 L 0.59375 -6.015625 Z M 1.640625 -6.015625 "/>
</g>
<g id="glyph-2-0">
<path d="M 5 -1.234375 C 4.4375 -0.765625 3.875 -0.53125 3.140625 -0.53125 C 2.09375 -0.53125 1.4375 -1 1.4375 -2.203125 C 1.4375 -3.796875 2.40625 -5.078125 3.828125 -5.078125 C 4.734375 -5.078125 5.1875 -4.625 5.171875 -3.5625 L 5.5 -3.5625 L 5.875 -5.46875 L 5.59375 -5.46875 C 5.421875 -5.28125 5.34375 -5.1875 5.234375 -5.1875 C 5.046875 -5.1875 4.828125 -5.484375 3.953125 -5.484375 C 2.078125 -5.484375 0.53125 -4.171875 0.53125 -1.984375 C 0.53125 -0.71875 1.265625 0.09375 2.734375 0.09375 C 3.890625 0.09375 4.640625 -0.421875 5.1875 -1.0625 Z M 5 -1.234375 "/>
</g>
<g id="glyph-3-0">
<path d="M 6.46875 -7.0625 L 6.46875 -7.953125 L 0.234375 -7.953125 L 0.234375 -7.0625 L 2.84375 -7.0625 L 2.84375 0 L 3.859375 0 L 3.859375 -7.0625 Z M 6.46875 -7.0625 "/>
</g>
<g id="glyph-3-1">
<path d="M 5.25 0 L 5.25 -5.71875 L 4.359375 -5.71875 L 4.359375 -2.5625 C 4.359375 -1.390625 3.734375 -0.625 2.796875 -0.625 C 2.078125 -0.625 1.609375 -1.0625 1.609375 -1.75 L 1.609375 -5.71875 L 0.703125 -5.71875 L 0.703125 -1.390625 C 0.703125 -0.453125 1.421875 0.15625 2.53125 0.15625 C 3.375 0.15625 3.90625 -0.125 4.4375 -0.890625 L 4.4375 0 Z M 5.25 0 "/>
</g>
<g id="glyph-3-2">
<path d="M 5.59375 -2.59375 C 5.59375 -3.421875 5.53125 -3.953125 5.359375 -4.375 C 5 -5.3125 4.125 -5.875 3.046875 -5.875 C 1.46875 -5.875 0.4375 -4.703125 0.4375 -2.828125 C 0.4375 -0.953125 1.421875 0.15625 3.03125 0.15625 C 4.34375 0.15625 5.25 -0.578125 5.46875 -1.734375 L 4.5625 -1.734375 C 4.3125 -0.984375 3.796875 -0.671875 3.0625 -0.671875 C 2.109375 -0.671875 1.40625 -1.28125 1.390625 -2.59375 Z M 4.625 -3.40625 C 4.625 -3.40625 4.625 -3.359375 4.609375 -3.34375 L 1.40625 -3.34375 C 1.484375 -4.359375 2.125 -5.03125 3.046875 -5.03125 C 3.9375 -5.03125 4.625 -4.296875 4.625 -3.40625 Z M 4.625 -3.40625 "/>
</g>
<g id="glyph-3-3">
<path d="M 5 -1.609375 C 5 -2.453125 4.53125 -2.875 3.390625 -3.15625 L 2.515625 -3.359375 C 1.78125 -3.53125 1.46875 -3.78125 1.46875 -4.171875 C 1.46875 -4.703125 1.9375 -5.03125 2.671875 -5.03125 C 3.40625 -5.03125 3.796875 -4.71875 3.8125 -4.125 L 4.78125 -4.125 C 4.765625 -5.25 4.03125 -5.875 2.703125 -5.875 C 1.375 -5.875 0.515625 -5.1875 0.515625 -4.140625 C 0.515625 -3.234375 0.96875 -2.8125 2.328125 -2.484375 L 3.171875 -2.28125 C 3.8125 -2.125 4.0625 -1.9375 4.0625 -1.53125 C 4.0625 -1 3.515625 -0.671875 2.71875 -0.671875 C 1.90625 -0.671875 1.453125 -0.875 1.328125 -1.75 L 0.375 -1.75 C 0.421875 -0.421875 1.15625 0.15625 2.65625 0.15625 C 4.09375 0.15625 5 -0.5 5 -1.609375 Z M 5 -1.609375 "/>
</g>
<g id="glyph-3-4">
<path d="M 5.40625 0 L 5.40625 -7.953125 L 4.5 -7.953125 L 4.5 -5 C 4.109375 -5.578125 3.5 -5.875 2.734375 -5.875 C 1.25 -5.875 0.28125 -4.734375 0.28125 -2.90625 C 0.28125 -0.984375 1.234375 0.15625 2.765625 0.15625 C 3.5625 0.15625 4.09375 -0.125 4.59375 -0.84375 L 4.59375 0 Z M 4.5 -2.828125 C 4.5 -1.515625 3.859375 -0.6875 2.90625 -0.6875 C 1.890625 -0.6875 1.234375 -1.53125 1.234375 -2.859375 C 1.234375 -4.1875 1.890625 -5.03125 2.890625 -5.03125 C 3.875 -5.03125 4.5 -4.15625 4.5 -2.828125 Z M 4.5 -2.828125 "/>
</g>
<g id="glyph-3-5">
<path d="M 5.828125 -0.015625 L 5.828125 -0.703125 C 5.734375 -0.6875 5.6875 -0.6875 5.640625 -0.6875 C 5.328125 -0.6875 5.140625 -0.84375 5.140625 -1.140625 L 5.140625 -4.3125 C 5.140625 -5.328125 4.40625 -5.875 3 -5.875 C 1.609375 -5.875 0.765625 -5.34375 0.703125 -4.03125 L 1.625 -4.03125 C 1.703125 -4.71875 2.109375 -5.03125 2.96875 -5.03125 C 3.78125 -5.03125 4.25 -4.734375 4.25 -4.1875 L 4.25 -3.953125 C 4.25 -3.5625 4.015625 -3.40625 3.296875 -3.3125 C 2 -3.15625 1.8125 -3.109375 1.46875 -2.96875 C 0.796875 -2.6875 0.453125 -2.1875 0.453125 -1.484375 C 0.453125 -0.453125 1.171875 0.15625 2.328125 0.15625 C 3.0625 0.15625 3.78125 -0.140625 4.28125 -0.671875 C 4.375 -0.234375 4.765625 0.078125 5.21875 0.078125 C 5.40625 0.078125 5.546875 0.046875 5.828125 -0.015625 Z M 4.25 -1.96875 C 4.25 -1.15625 3.40625 -0.625 2.53125 -0.625 C 1.828125 -0.625 1.40625 -0.890625 1.40625 -1.5 C 1.40625 -2.109375 1.8125 -2.359375 2.78125 -2.515625 C 3.734375 -2.640625 3.9375 -2.6875 4.25 -2.828125 Z M 4.25 -1.96875 "/>
</g>
<g id="glyph-3-6">
<path d="M 5.21875 -5.71875 L 4.234375 -5.71875 L 2.65625 -1.265625 L 1.1875 -5.71875 L 0.21875 -5.71875 L 2.15625 0.015625 L 1.796875 0.921875 C 1.640625 1.328125 1.46875 1.484375 1.0625 1.484375 C 0.9375 1.484375 0.78125 1.46875 0.59375 1.421875 L 0.59375 2.234375 C 0.78125 2.328125 0.953125 2.375 1.203125 2.375 C 1.84375 2.375 2.359375 2.015625 2.671875 1.203125 Z M 5.21875 -5.71875 "/>
</g>
<g id="glyph-3-7">
<path d="M 5.296875 0 L 5.296875 -4.3125 C 5.296875 -5.28125 4.609375 -5.875 3.5 -5.875 C 2.6875 -5.875 2.203125 -5.625 1.671875 -4.921875 L 1.671875 -7.953125 L 0.765625 -7.953125 L 0.765625 0 L 1.671875 0 L 1.671875 -3.15625 C 1.671875 -4.3125 2.28125 -5.078125 3.21875 -5.078125 C 3.859375 -5.078125 4.390625 -4.71875 4.390625 -3.953125 L 4.390625 0 Z M 5.296875 0 "/>
</g>
<g id="glyph-3-8">
<path d="M 3.5 -4.921875 L 3.5 -5.84375 C 3.34375 -5.875 3.265625 -5.875 3.15625 -5.875 C 2.5625 -5.875 2.109375 -5.53125 1.59375 -4.671875 L 1.59375 -5.71875 L 0.765625 -5.71875 L 0.765625 0 L 1.671875 0 L 1.671875 -2.96875 C 1.671875 -4.25 2.09375 -4.890625 3.5 -4.921875 Z M 3.5 -4.921875 "/>
</g>
<g id="glyph-3-9">
<path d="M 6.765625 -2.1875 C 6.765625 -3.15625 6.15625 -3.875 5.078125 -4.171875 L 3.09375 -4.71875 C 2.125 -4.96875 1.78125 -5.28125 1.78125 -5.890625 C 1.78125 -6.703125 2.484375 -7.296875 3.5625 -7.296875 C 4.828125 -7.296875 5.546875 -6.71875 5.546875 -5.6875 L 6.5 -5.6875 C 6.5 -7.234375 5.421875 -8.140625 3.59375 -8.140625 C 1.84375 -8.140625 0.765625 -7.1875 0.765625 -5.75 C 0.765625 -4.78125 1.28125 -4.171875 2.328125 -3.890625 L 4.296875 -3.375 C 5.296875 -3.109375 5.765625 -2.703125 5.765625 -2.078125 C 5.765625 -1.203125 5.109375 -0.703125 3.734375 -0.703125 C 2.21875 -0.703125 1.484375 -1.453125 1.484375 -2.578125 L 0.53125 -2.578125 C 0.53125 -0.703125 1.78125 0.203125 3.671875 0.203125 C 5.6875 0.203125 6.765625 -0.765625 6.765625 -2.1875 Z M 6.765625 -2.1875 "/>
</g>
<g id="glyph-3-10">
<path d="M 2.765625 0 L 2.765625 -0.765625 C 2.65625 -0.734375 2.515625 -0.71875 2.328125 -0.71875 C 1.9375 -0.71875 1.828125 -0.828125 1.828125 -1.234375 L 1.828125 -4.96875 L 2.765625 -4.96875 L 2.765625 -5.71875 L 1.828125 -5.71875 L 1.828125 -7.28125 L 0.921875 -7.28125 L 0.921875 -5.71875 L 0.15625 -5.71875 L 0.15625 -4.96875 L 0.921875 -4.96875 L 0.921875 -0.828125 C 0.921875 -0.25 1.3125 0.078125 2.03125 0.078125 C 2.25 0.078125 2.46875 0.046875 2.765625 0 Z M 2.765625 0 "/>
</g>
</g>
<clipPath id="clip-0">
<path clip-rule="nonzero" d="M 0 0 L 352.988281 0 L 352.988281 276.785156 L 0 276.785156 Z M 0 0 "/>
</clipPath>
</defs>
<g clip-path="url(#clip-0)">
<path fill-rule="nonzero" fill="rgb(89.802551%, 90.586853%, 92.156982%)" fill-opacity="1" d="M -0.00390625 268.816406 L -0.00390625 7.96875 C -0.00390625 3.566406 3.566406 -0.00390625 7.96875 -0.00390625 L 345.023438 -0.00390625 C 349.425781 -0.00390625 352.992188 3.566406 352.992188 7.96875 L 352.992188 268.816406 C 352.992188 273.21875 349.425781 276.785156 345.023438 276.785156 L 7.96875 276.785156 C 3.566406 276.785156 -0.00390625 273.21875 -0.00390625 268.816406 Z M -0.00390625 268.816406 "/>
</g>
<path fill-rule="nonzero" fill="rgb(79.998779%, 87.057495%, 91.372681%)" fill-opacity="1" d="M 329.566406 125.472656 C 329.566406 69.109375 261.035156 23.421875 176.496094 23.421875 C 91.953125 23.421875 23.421875 69.109375 23.421875 125.472656 C 23.421875 181.832031 91.953125 227.519531 176.496094 227.519531 C 261.035156 227.519531 329.566406 181.832031 329.566406 125.472656 Z M 329.566406 125.472656 "/>
<path fill-rule="nonzero" fill="rgb(89.802551%, 90.586853%, 92.156982%)" fill-opacity="1" d="M 271.738281 125.472656 C 271.738281 91.65625 244.328125 64.242188 210.511719 64.242188 C 176.695312 64.242188 149.28125 91.65625 149.28125 125.472656 C 149.28125 159.289062 176.695312 186.699219 210.511719 186.699219 C 244.328125 186.699219 271.738281 159.289062 271.738281 125.472656 Z M 271.738281 125.472656 "/>
<path fill-rule="nonzero" fill="rgb(100%, 100%, 100%)" fill-opacity="1" d="M 271.738281 125.472656 C 271.738281 91.65625 244.328125 64.242188 210.511719 64.242188 C 176.695312 64.242188 149.28125 91.65625 149.28125 125.472656 C 149.28125 159.289062 176.695312 186.699219 210.511719 186.699219 C 244.328125 186.699219 271.738281 159.289062 271.738281 125.472656 Z M 271.738281 125.472656 "/>
<path fill="none" stroke-width="1.49442" stroke-linecap="butt" stroke-linejoin="miter" stroke="rgb(11.764526%, 22.744751%, 54.116821%)" stroke-opacity="1" stroke-miterlimit="10" d="M 153.071406 -0.00165625 C 153.071406 56.361625 84.540156 102.049125 0.00109375 102.049125 C -84.541875 102.049125 -153.073125 56.361625 -153.073125 -0.00165625 C -153.073125 -56.361031 -84.541875 -102.048531 0.00109375 -102.048531 C 84.540156 -102.048531 153.071406 -56.361031 153.071406 -0.00165625 Z M 153.071406 -0.00165625 " transform="matrix(1, 0, 0, -1, 176.495, 125.471)"/>
<path fill="none" stroke-width="1.49442" stroke-linecap="butt" stroke-linejoin="miter" stroke="rgb(11.764526%, 22.744751%, 54.116821%)" stroke-opacity="1" stroke-miterlimit="10" d="M 95.243281 -0.00165625 C 95.243281 33.81475 67.833125 61.228813 34.016719 61.228813 C 0.200312 61.228813 -27.21375 33.81475 -27.21375 -0.00165625 C -27.21375 -33.818062 0.200312 -61.228219 34.016719 -61.228219 C 67.833125 -61.228219 95.243281 -33.818062 95.243281 -0.00165625 Z M 95.243281 -0.00165625 " transform="matrix(1, 0, 0, -1, 176.495, 125.471)"/>
<g fill="rgb(11.764526%, 22.744751%, 54.116821%)" fill-opacity="1">
<use xlink:href="#glyph-0-0" x="137.499" y="54.188"/>
</g>
<g fill="rgb(11.764526%, 22.744751%, 54.116821%)" fill-opacity="1">
<use xlink:href="#glyph-0-1" x="207.276" y="78.031"/>
</g>
<g fill="rgb(0%, 0%, 0%)" fill-opacity="1">
<use xlink:href="#glyph-1-0" x="72.925" y="100.804"/>
</g>
<g fill="rgb(0%, 0%, 0%)" fill-opacity="1">
<use xlink:href="#glyph-1-1" x="78.115535" y="100.804"/>
<use xlink:href="#glyph-1-2" x="83.654763" y="100.804"/>
<use xlink:href="#glyph-1-3" x="89.193991" y="100.804"/>
<use xlink:href="#glyph-1-4" x="94.175311" y="100.804"/>
<use xlink:href="#glyph-1-5" x="99.714539" y="100.804"/>
</g>
<g fill="rgb(0%, 0%, 0%)" fill-opacity="1">
<use xlink:href="#glyph-1-6" x="105.004701" y="100.804"/>
</g>
<g fill="rgb(0%, 0%, 0%)" fill-opacity="1">
<use xlink:href="#glyph-1-0" x="70.793" y="128.017"/>
<use xlink:href="#glyph-1-7" x="76.880173" y="128.017"/>
<use xlink:href="#glyph-1-1" x="82.419401" y="128.017"/>
<use xlink:href="#glyph-1-8" x="87.958629" y="128.017"/>
</g>
<g fill="rgb(0%, 0%, 0%)" fill-opacity="1">
<use xlink:href="#glyph-1-3" x="91.326001" y="128.017"/>
<use xlink:href="#glyph-1-4" x="96.307321" y="128.017"/>
<use xlink:href="#glyph-1-5" x="101.846549" y="128.017"/>
</g>
<g fill="rgb(0%, 0%, 0%)" fill-opacity="1">
<use xlink:href="#glyph-1-6" x="107.136711" y="128.017"/>
</g>
<g fill="rgb(0%, 0%, 0%)" fill-opacity="1">
<use xlink:href="#glyph-1-9" x="71.645" y="155.319"/>
<use xlink:href="#glyph-1-5" x="78.290081" y="155.319"/>
<use xlink:href="#glyph-1-10" x="83.829309" y="155.319"/>
<use xlink:href="#glyph-1-1" x="86.598923" y="155.319"/>
<use xlink:href="#glyph-1-8" x="92.13815" y="155.319"/>
<use xlink:href="#glyph-1-4" x="95.45571" y="155.319"/>
<use xlink:href="#glyph-1-5" x="100.994937" y="155.319"/>
</g>
<g fill="rgb(0%, 0%, 0%)" fill-opacity="1">
<use xlink:href="#glyph-1-6" x="106.285099" y="155.319"/>
</g>
<g fill="rgb(0%, 0%, 0%)" fill-opacity="1">
<use xlink:href="#glyph-1-11" x="192.917" y="100.804"/>
<use xlink:href="#glyph-1-12" x="201.215879" y="100.804"/>
<use xlink:href="#glyph-1-13" x="206.755107" y="100.804"/>
<use xlink:href="#glyph-1-4" x="212.294335" y="100.804"/>
<use xlink:href="#glyph-1-5" x="217.833563" y="100.804"/>
</g>
<g fill="rgb(0%, 0%, 0%)" fill-opacity="1">
<use xlink:href="#glyph-1-6" x="223.123724" y="100.804"/>
</g>
<g fill="rgb(0%, 0%, 0%)" fill-opacity="1">
<use xlink:href="#glyph-1-14" x="160.672" y="124.615"/>
</g>
<g fill="rgb(0%, 0%, 0%)" fill-opacity="1">
<use xlink:href="#glyph-1-2" x="169.777853" y="124.615"/>
<use xlink:href="#glyph-1-4" x="175.317081" y="124.615"/>
<use xlink:href="#glyph-1-13" x="180.856309" y="124.615"/>
<use xlink:href="#glyph-1-2" x="186.395536" y="124.615"/>
<use xlink:href="#glyph-1-3" x="191.934764" y="124.615"/>
<use xlink:href="#glyph-1-4" x="196.916084" y="124.615"/>
<use xlink:href="#glyph-1-5" x="202.455312" y="124.615"/>
</g>
<g fill="rgb(0%, 0%, 0%)" fill-opacity="1">
<use xlink:href="#glyph-1-6" x="207.745474" y="124.615"/>
</g>
<g fill="rgb(0%, 0%, 0%)" fill-opacity="1">
<use xlink:href="#glyph-1-15" x="220.782" y="138.221"/>
</g>
<g fill="rgb(0%, 0%, 0%)" fill-opacity="1">
<use xlink:href="#glyph-1-8" x="226.520481" y="138.221"/>
<use xlink:href="#glyph-1-16" x="229.83804" y="138.221"/>
<use xlink:href="#glyph-1-4" x="232.049746" y="138.221"/>
<use xlink:href="#glyph-1-5" x="237.588974" y="138.221"/>
</g>
<g fill="rgb(0%, 0%, 0%)" fill-opacity="1">
<use xlink:href="#glyph-1-6" x="242.879136" y="138.221"/>
</g>
<g fill="rgb(0%, 0%, 0%)" fill-opacity="1">
<use xlink:href="#glyph-1-9" x="193.743" y="158.72"/>
<use xlink:href="#glyph-1-1" x="200.388081" y="158.72"/>
<use xlink:href="#glyph-1-13" x="205.927309" y="158.72"/>
<use xlink:href="#glyph-1-4" x="211.466537" y="158.72"/>
<use xlink:href="#glyph-1-5" x="217.005764" y="158.72"/>
</g>
<g fill="rgb(0%, 0%, 0%)" fill-opacity="1">
<use xlink:href="#glyph-1-6" x="222.295926" y="158.72"/>
</g>
<g fill="rgb(0%, 0%, 0%)" fill-opacity="1">
<use xlink:href="#glyph-0-0" x="58.811" y="247.984"/>
</g>
<g fill="rgb(0%, 0%, 0%)" fill-opacity="1">
<use xlink:href="#glyph-0-2" x="72.283726" y="247.984"/>
</g>
<g fill="rgb(0%, 0%, 0%)" fill-opacity="1">
<use xlink:href="#glyph-0-1" x="80.541907" y="247.984"/>
</g>
<g fill="rgb(0%, 0%, 0%)" fill-opacity="1">
<use xlink:href="#glyph-0-3" x="90.370997" y="247.984"/>
</g>
<g fill="rgb(0%, 0%, 0%)" fill-opacity="1">
<use xlink:href="#glyph-0-4" x="107.913" y="246.053"/>
</g>
<g fill="rgb(0%, 0%, 0%)" fill-opacity="1">
<use xlink:href="#glyph-0-1" x="101.258" y="247.984"/>
</g>
<g fill="rgb(0%, 0%, 0%)" fill-opacity="1">
<use xlink:href="#glyph-0-3" x="111.076181" y="247.984"/>
</g>
<g fill="rgb(0%, 0%, 0%)" fill-opacity="1">
<use xlink:href="#glyph-0-1" x="121.963453" y="247.984"/>
</g>
<g fill="rgb(0%, 0%, 0%)" fill-opacity="1">
<use xlink:href="#glyph-2-0" x="128.766" y="244.056"/>
</g>
<g fill="rgb(0%, 0%, 0%)" fill-opacity="1">
<use xlink:href="#glyph-0-3" x="137.96" y="247.984"/>
</g>
<g fill="rgb(0%, 0%, 0%)" fill-opacity="1">
<use xlink:href="#glyph-0-5" x="148.836363" y="247.984"/>
</g>
<g fill="rgb(0%, 0%, 0%)" fill-opacity="1">
<use xlink:href="#glyph-3-0" x="152.412" y="247.984"/>
</g>
<g fill="rgb(0%, 0%, 0%)" fill-opacity="1">
<use xlink:href="#glyph-3-1" x="158.095636" y="247.984"/>
<use xlink:href="#glyph-3-2" x="164.16109" y="247.984"/>
<use xlink:href="#glyph-3-3" x="170.226544" y="247.984"/>
<use xlink:href="#glyph-3-4" x="175.681089" y="247.984"/>
<use xlink:href="#glyph-3-5" x="181.746543" y="247.984"/>
</g>
<g fill="rgb(0%, 0%, 0%)" fill-opacity="1">
<use xlink:href="#glyph-3-6" x="187.53927" y="247.984"/>
</g>
<g fill="rgb(0%, 0%, 0%)" fill-opacity="1">
<use xlink:href="#glyph-0-6" x="192.994" y="247.984"/>
</g>
<g fill="rgb(0%, 0%, 0%)" fill-opacity="1">
<use xlink:href="#glyph-3-0" x="197.484" y="247.984"/>
<use xlink:href="#glyph-3-7" x="204.149454" y="247.984"/>
<use xlink:href="#glyph-3-1" x="210.214908" y="247.984"/>
<use xlink:href="#glyph-3-8" x="216.280362" y="247.984"/>
</g>
<g fill="rgb(0%, 0%, 0%)" fill-opacity="1">
<use xlink:href="#glyph-3-3" x="219.967634" y="247.984"/>
<use xlink:href="#glyph-3-4" x="225.422179" y="247.984"/>
<use xlink:href="#glyph-3-5" x="231.487634" y="247.984"/>
</g>
<g fill="rgb(0%, 0%, 0%)" fill-opacity="1">
<use xlink:href="#glyph-3-6" x="237.28036" y="247.984"/>
</g>
<g fill="rgb(0%, 0%, 0%)" fill-opacity="1">
<use xlink:href="#glyph-0-6" x="242.735" y="247.984"/>
</g>
<g fill="rgb(0%, 0%, 0%)" fill-opacity="1">
<use xlink:href="#glyph-3-9" x="247.226" y="247.984"/>
<use xlink:href="#glyph-3-5" x="254.502363" y="247.984"/>
<use xlink:href="#glyph-3-10" x="260.567817" y="247.984"/>
<use xlink:href="#glyph-3-1" x="263.600544" y="247.984"/>
<use xlink:href="#glyph-3-8" x="269.665998" y="247.984"/>
<use xlink:href="#glyph-3-4" x="273.298725" y="247.984"/>
<use xlink:href="#glyph-3-5" x="279.364179" y="247.984"/>
</g>
<g fill="rgb(0%, 0%, 0%)" fill-opacity="1">
<use xlink:href="#glyph-3-6" x="285.156906" y="247.984"/>
</g>
<g fill="rgb(0%, 0%, 0%)" fill-opacity="1">
<use xlink:href="#glyph-0-7" x="290.612" y="247.984"/>
</g>
</svg>
