<?xml version="1.0" encoding="UTF-8"?>
<svg xmlns="http://www.w3.org/2000/svg" xmlns:xlink="http://www.w3.org/1999/xlink" width="289.93pt" height="221.899pt" viewBox="0 0 289.93 221.899">
<defs>
<g>
<g id="glyph-0-0">
<path d="M 3.5 -4.921875 L 3.5 -5.84375 C 3.34375 -5.875 3.265625 -5.875 3.15625 -5.875 C 2.5625 -5.875 2.109375 -5.53125 1.59375 -4.671875 L 1.59375 -5.71875 L 0.765625 -5.71875 L 0.765625 0 L 1.671875 0 L 1.671875 -2.96875 C 1.671875 -4.25 2.09375 -4.890625 3.5 -4.921875 Z M 3.5 -4.921875 "/>
</g>
<g id="glyph-0-1">
<path d="M 5.59375 -2.59375 C 5.59375 -3.421875 5.53125 -3.953125 5.359375 -4.375 C 5 -5.3125 4.125 -5.875 3.046875 -5.875 C 1.46875 -5.875 0.4375 -4.703125 0.4375 -2.828125 C 0.4375 -0.953125 1.421875 0.15625 3.03125 0.15625 C 4.34375 0.15625 5.25 -0.578125 5.46875 -1.734375 L 4.5625 -1.734375 C 4.3125 -0.984375 3.796875 -0.671875 3.0625 -0.671875 C 2.109375 -0.671875 1.40625 -1.28125 1.390625 -2.59375 Z M 4.625 -3.40625 C 4.625 -3.40625 4.625 -3.359375 4.609375 -3.34375 L 1.40625 -3.34375 C 1.484375 -4.359375 2.125 -5.03125 3.046875 -5.03125 C 3.9375 -5.03125 4.625 -4.296875 4.625 -3.40625 Z M 4.625 -3.40625 "/>
</g>
<g id="glyph-0-2">
<path d="M 5.828125 -0.015625 L 5.828125 -0.703125 C 5.734375 -0.6875 5.6875 -0.6875 5.640625 -0.6875 C 5.328125 -0.6875 5.140625 -0.84375 5.140625 -1.140625 L 5.140625 -4.3125 C 5.140625 -5.328125 4.40625 -5.875 3 -5.875 C 1.609375 -5.875 0.765625 -5.34375 0.703125 -4.03125 L 1.625 -4.03125 C 1.703125 -4.71875 2.109375 -5.03125 2.96875 -5.03125 C 3.78125 -5.03125 4.25 -4.734375 4.25 -4.1875 L 4.25 -3.953125 C 4.25 -3.5625 4.015625 -3.40625 3.296875 -3.3125 C 2 -3.15625 1.8125 -3.109375 1.46875 -2.96875 C 0.796875 -2.6875 0.453125 -2.1875 0.453125 -1.484375 C 0.453125 -0.453125 1.171875 0.15625 2.328125 0.15625 C 3.0625 0.15625 3.78125 -0.140625 4.28125 -0.671875 C 4.375 -0.234375 4.765625 0.078125 5.21875 0.078125 C 5.40625 0.078125 5.546875 0.046875 5.828125 -0.015625 Z M 4.25 -1.96875 C 4.25 -1.15625 3.40625 -0.625 2.53125 -0.625 C 1.828125 -0.625 1.40625 -0.890625 1.40625 -1.5 C 1.40625 -2.109375 1.8125 -2.359375 2.78125 -2.515625 C 3.734375 -2.640625 3.9375 -2.6875 4.25 -2.828125 Z M 4.25 -1.96875 "/>
</g>
<g id="glyph-0-3">
<path d="M 1.640625 0 L 1.640625 -7.953125 L 0.734375 -7.953125 L 0.734375 0 Z M 1.640625 0 "/>
</g>
<g id="glyph-0-4">
<path d="M 5.3125 0 L 5.3125 -4.3125 C 5.3125 -5.265625 4.609375 -5.875 3.5 -5.875 C 2.65625 -5.875 2.109375 -5.546875 1.609375 -4.75 L 1.609375 -5.71875 L 0.765625 -5.71875 L 0.765625 0 L 1.671875 0 L 1.671875 -3.15625 C 1.671875 -4.3125 2.296875 -5.078125 3.234375 -5.078125 C 3.953125 -5.078125 4.40625 -4.640625 4.40625 -3.953125 L 4.40625 0 Z M 5.3125 0 "/>
</g>
<g id="glyph-0-5">
<path d="M 5.25 0 L 5.25 -5.71875 L 4.359375 -5.71875 L 4.359375 -2.5625 C 4.359375 -1.390625 3.734375 -0.625 2.796875 -0.625 C 2.078125 -0.625 1.609375 -1.0625 1.609375 -1.75 L 1.609375 -5.71875 L 0.703125 -5.71875 L 0.703125 -1.390625 C 0.703125 -0.453125 1.421875 0.15625 2.53125 0.15625 C 3.375 0.15625 3.90625 -0.125 4.4375 -0.890625 L 4.4375 0 Z M 5.25 0 "/>
</g>
<g id="glyph-0-6">
<path d="M 8.28125 0 L 8.28125 -4.28125 C 8.28125 -5.3125 7.71875 -5.875 6.65625 -5.875 C 5.890625 -5.875 5.4375 -5.65625 4.890625 -5 C 4.5625 -5.609375 4.09375 -5.875 3.359375 -5.875 C 2.59375 -5.875 2.09375 -5.59375 1.609375 -4.90625 L 1.609375 -5.71875 L 0.78125 -5.71875 L 0.78125 0 L 1.671875 0 L 1.671875 -3.59375 C 1.671875 -4.421875 2.28125 -5.078125 3.015625 -5.078125 C 3.703125 -5.078125 4.078125 -4.671875 4.078125 -3.9375 L 4.078125 0 L 4.984375 0 L 4.984375 -3.59375 C 4.984375 -4.421875 5.59375 -5.078125 6.34375 -5.078125 C 7 -5.078125 7.390625 -4.65625 7.390625 -3.9375 L 7.390625 0 Z M 8.28125 0 "/>
</g>
<g id="glyph-0-7">
<path d="M 5.703125 -2.921875 C 5.703125 -4.78125 4.765625 -5.875 3.265625 -5.875 C 2.46875 -5.875 1.921875 -5.578125 1.5 -4.9375 L 1.5 -7.953125 L 0.59375 -7.953125 L 0.59375 0 L 1.40625 0 L 1.40625 -0.8125 C 1.84375 -0.15625 2.421875 0.15625 3.21875 0.15625 C 4.71875 0.15625 5.703125 -1.0625 5.703125 -2.921875 Z M 4.75 -2.875 C 4.75 -1.578125 4.078125 -0.6875 3.09375 -0.6875 C 2.125 -0.6875 1.5 -1.5625 1.5 -2.859375 C 1.5 -4.203125 2.125 -5.078125 3.09375 -5.03125 C 4.09375 -5.03125 4.75 -4.140625 4.75 -2.875 Z M 4.75 -2.875 "/>
</g>
<g id="glyph-0-8">
<path d="M 5 -1.609375 C 5 -2.453125 4.53125 -2.875 3.390625 -3.15625 L 2.515625 -3.359375 C 1.78125 -3.53125 1.46875 -3.78125 1.46875 -4.171875 C 1.46875 -4.703125 1.9375 -5.03125 2.671875 -5.03125 C 3.40625 -5.03125 3.796875 -4.71875 3.8125 -4.125 L 4.78125 -4.125 C 4.765625 -5.25 4.03125 -5.875 2.703125 -5.875 C 1.375 -5.875 0.515625 -5.1875 0.515625 -4.140625 C 0.515625 -3.234375 0.96875 -2.8125 2.328125 -2.484375 L 3.171875 -2.28125 C 3.8125 -2.125 4.0625 -1.9375 4.0625 -1.53125 C 4.0625 -1 3.515625 -0.671875 2.71875 -0.671875 C 1.90625 -0.671875 1.453125 -0.875 1.328125 -1.75 L 0.375 -1.75 C 0.421875 -0.421875 1.15625 0.15625 2.65625 0.15625 C 4.09375 0.15625 5 -0.5 5 -1.609375 Z M 5 -1.609375 "/>
</g>
<g id="glyph-0-9">
<path d="M 2.765625 0 L 2.765625 -0.765625 C 2.65625 -0.734375 2.515625 -0.71875 2.328125 -0.71875 C 1.9375 -0.71875 1.828125 -0.828125 1.828125 -1.234375 L 1.828125 -4.96875 L 2.765625 -4.96875 L 2.765625 -5.71875 L 1.828125 -5.71875 L 1.828125 -7.28125 L 0.921875 -7.28125 L 0.921875 -5.71875 L 0.15625 -5.71875 L 0.15625 -4.96875 L 0.921875 -4.96875 L 0.921875 -0.828125 C 0.921875 -0.25 1.3125 0.078125 2.03125 0.078125 C 2.25 0.078125 2.46875 0.046875 2.765625 0 Z M 2.765625 0 "/>
</g>
<g id="glyph-0-10">
<path d="M 1.671875 0 L 1.671875 -5.71875 L 0.765625 -5.71875 L 0.765625 0 Z M 1.78125 -6.578125 L 1.78125 -7.703125 L 0.65625 -7.703125 L 0.65625 -6.578125 Z M 1.78125 -6.578125 "/>
</g>
<g id="glyph-0-11">
<path d="M 5.5625 -2.8125 C 5.5625 -4.78125 4.609375 -5.875 2.96875 -5.875 C 1.359375 -5.875 0.390625 -4.78125 0.390625 -2.859375 C 0.390625 -0.9375 1.359375 0.15625 2.984375 0.15625 C 4.578125 0.15625 5.5625 -0.9375 5.5625 -2.8125 Z M 4.609375 -2.828125 C 4.609375 -1.484375 3.984375 -0.671875 2.984375 -0.671875 C 1.96875 -0.671875 1.34375 -1.46875 1.34375 -2.859375 C 1.34375 -4.234375 1.96875 -5.03125 2.984375 -5.03125 C 4 -5.03125 4.609375 -4.25 4.609375 -2.828125 Z M 4.609375 -2.828125 "/>
</g>
<g id="glyph-0-12">
<path d="M 5.328125 -0.9375 L 5.328125 -5.71875 L 4.5 -5.71875 L 4.5 -4.890625 C 4.03125 -5.5625 3.484375 -5.875 2.75 -5.875 C 1.296875 -5.875 0.3125 -4.65625 0.3125 -2.796875 C 0.3125 -1 1.328125 0.15625 2.671875 0.15625 C 3.390625 0.15625 3.890625 -0.140625 4.5 -0.859375 L 4.5 -0.484375 C 4.5 1.03125 3.875 1.609375 2.8125 1.609375 C 2.09375 1.609375 1.53125 1.359375 1.421875 0.65625 L 0.5 0.65625 C 0.59375 1.734375 1.4375 2.375 2.78125 2.375 C 4.5625 2.375 5.328125 1.578125 5.328125 -0.9375 Z M 4.40625 -2.828125 C 4.40625 -1.46875 3.8125 -0.671875 2.859375 -0.671875 C 1.859375 -0.671875 1.265625 -1.46875 1.265625 -2.859375 C 1.265625 -4.234375 1.875 -5.03125 2.84375 -5.03125 C 3.828125 -5.03125 4.40625 -4.203125 4.40625 -2.828125 Z M 4.40625 -2.828125 "/>
</g>
<g id="glyph-1-0">
<path d="M 5.484375 0 L 7.71875 0 L 5.375 -3.109375 C 6.21875 -3.375 6.8125 -3.984375 6.8125 -5.078125 C 6.8125 -6.640625 5.578125 -7.171875 4.359375 -7.171875 L 0.78125 -7.171875 L 0.78125 0 L 2.578125 0 L 2.578125 -2.921875 L 3.375 -2.921875 Z M 4.859375 -6.671875 L 4.859375 -3.421875 C 4.640625 -3.390625 4.421875 -3.375 4.203125 -3.375 L 2.578125 -3.375 L 2.578125 -6.703125 L 4.328125 -6.703125 C 4.5 -6.703125 4.671875 -6.703125 4.859375 -6.671875 Z M 1.25 -6.703125 L 2.109375 -6.703125 L 2.109375 -0.453125 L 1.25 -0.453125 Z M 4.890625 -2.984375 L 6.796875 -0.453125 L 5.71875 -0.453125 L 3.953125 -2.921875 L 4.09375 -2.921875 C 4.359375 -2.921875 4.625 -2.9375 4.890625 -2.984375 Z M 6.296875 -5.078125 C 6.296875 -4.25 5.875 -3.796875 5.328125 -3.5625 L 5.328125 -6.546875 C 5.890625 -6.34375 6.296875 -5.90625 6.296875 -5.078125 Z M 6.296875 -5.078125 "/>
</g>
<g id="glyph-1-1">
<path d="M 4.109375 0.15625 C 4.546875 0.15625 4.96875 0.09375 5.328125 -0.03125 C 5.6875 0.34375 6.078125 0.703125 6.765625 0.703125 C 7.0625 0.703125 7.359375 0.65625 7.671875 0.609375 L 7.609375 0.140625 C 7.328125 0.1875 7.046875 0.234375 6.765625 0.234375 C 6.390625 0.234375 6.125 0.015625 5.859375 -0.25 C 7 -0.875 7.703125 -2.109375 7.703125 -3.59375 C 7.703125 -5.703125 6.265625 -7.296875 4.15625 -7.296875 C 1.96875 -7.296875 0.484375 -5.703125 0.484375 -3.59375 C 0.484375 -1.515625 1.96875 0.15625 4.109375 0.15625 Z M 2.765625 -0.59375 C 2.59375 -0.671875 2.4375 -0.765625 2.296875 -0.859375 L 2.296875 -6.328125 C 2.78125 -6.640625 3.390625 -6.828125 4.109375 -6.828125 C 4.8125 -6.828125 5.421875 -6.625 5.90625 -6.28125 L 5.90625 -0.84375 C 5.78125 -0.765625 5.65625 -0.6875 5.5 -0.625 C 5.15625 -0.984375 4.765625 -1.3125 4.15625 -1.3125 C 3.5625 -1.3125 3.125 -1.03125 2.765625 -0.59375 Z M 1.828125 -1.28125 C 1.28125 -1.890625 0.984375 -2.703125 0.984375 -3.59375 C 0.984375 -4.546875 1.28125 -5.359375 1.828125 -5.921875 Z M 6.375 -5.875 C 6.921875 -5.28125 7.203125 -4.453125 7.203125 -3.59375 C 7.203125 -2.703125 6.921875 -1.875 6.375 -1.28125 Z M 4.109375 -0.3125 C 3.8125 -0.3125 3.515625 -0.34375 3.25 -0.421875 C 3.484375 -0.671875 3.734375 -0.84375 4.125 -0.84375 C 4.484375 -0.84375 4.734375 -0.65625 4.96875 -0.421875 C 4.71875 -0.34375 4.421875 -0.3125 4.109375 -0.3125 Z M 4.109375 -0.3125 "/>
</g>
<g id="glyph-1-2">
<path d="M 0.6875 -7.171875 L 0.6875 -6.703125 L 4.671875 -6.703125 L 0.15625 -0.453125 L 0.15625 0 L 6.828125 0 L 6.828125 -0.453125 L 2.328125 -0.453125 L 6.921875 -6.703125 L 6.921875 -7.171875 Z M 0.71875 -0.453125 L 5.25 -6.703125 L 6.265625 -6.703125 L 1.78125 -0.453125 Z M 0.71875 -0.453125 "/>
</g>
<g id="glyph-1-3">
<path d="M 6.3125 -7.171875 L 6.3125 -1.71875 L 6.296875 -1.71875 L 2.21875 -7.171875 L 0.765625 -7.171875 L 0.765625 0 L 1.234375 0 L 1.234375 -5.453125 L 1.265625 -5.453125 L 5.328125 0 L 6.78125 0 L 6.78125 -7.171875 Z M 1.234375 -6.265625 L 1.234375 -6.703125 L 1.96875 -6.703125 L 6.3125 -0.890625 L 6.3125 -0.453125 L 5.578125 -0.453125 Z M 1.234375 -6.265625 "/>
</g>
<g id="glyph-1-4">
<path d="M 7.046875 0.28125 L 7.046875 -0.453125 L 3.84375 -0.453125 C 2.28125 -0.453125 1.671875 -1.640625 1.671875 -2.828125 C 1.671875 -4.03125 2.265625 -5.1875 3.84375 -5.1875 L 7.046875 -5.1875 L 7.046875 -5.921875 L 3.78125 -5.921875 C 2 -5.921875 0.8125 -4.484375 0.8125 -2.828125 C 0.8125 -1.171875 1.96875 0.28125 3.75 0.28125 Z M 7.046875 0.28125 "/>
</g>
<g id="glyph-2-0">
<path d="M 4.671875 -3.15625 C 4.671875 -5.21875 3.765625 -6.40625 2.484375 -6.40625 C 1.03125 -6.40625 0.265625 -5.078125 0.265625 -3.1875 C 0.265625 -1.421875 0.859375 0.109375 2.46875 0.109375 C 4.03125 0.109375 4.671875 -1.453125 4.671875 -3.15625 Z M 3.703125 -3.09375 C 3.703125 -1.1875 3.25 -0.25 2.46875 -0.25 C 1.671875 -0.25 1.21875 -1.203125 1.21875 -3.140625 C 1.21875 -5.109375 1.671875 -6.0625 2.453125 -6.0625 C 3.265625 -6.0625 3.703125 -5.125 3.703125 -3.09375 Z M 3.703125 -3.09375 "/>
</g>
<g id="glyph-2-1">
<path d="M 0.703125 1.3125 C 1.09375 1.140625 1.9375 0.796875 1.9375 -0.328125 C 1.9375 -0.875 1.671875 -1.203125 1.171875 -1.203125 C 0.765625 -1.203125 0.546875 -0.9375 0.546875 -0.625 C 0.546875 -0.328125 0.703125 -0.078125 1.09375 -0.078125 C 1.203125 -0.078125 1.296875 -0.09375 1.40625 -0.140625 C 1.40625 0.671875 0.953125 0.90625 0.578125 1.0625 Z M 0.703125 1.3125 "/>
</g>
<g id="glyph-2-2">
<path d="M 4.25 0 L 4.25 -0.28125 C 3.328125 -0.28125 2.953125 -0.453125 2.953125 -0.953125 L 2.953125 -6.375 L 2.671875 -6.375 L 0.734375 -5.828125 L 0.734375 -5.5 C 1.046875 -5.59375 1.5625 -5.65625 1.75 -5.65625 C 2 -5.65625 2.078125 -5.515625 2.078125 -5.15625 L 2.078125 -0.953125 C 2.078125 -0.453125 1.734375 -0.28125 0.796875 -0.28125 L 0.796875 0 Z M 4.25 0 "/>
</g>
<g id="glyph-2-3">
<path d="M 4.625 -1.59375 L 4.34375 -1.59375 C 4.109375 -1 3.984375 -0.78125 3.453125 -0.78125 L 2.0625 -0.78125 L 1.359375 -0.75 L 1.359375 -0.8125 L 2.6875 -2.046875 C 3.734375 -3.125 4.3125 -3.8125 4.3125 -4.6875 C 4.3125 -5.734375 3.515625 -6.421875 2.390625 -6.421875 C 1.421875 -6.421875 0.75 -5.859375 0.4375 -4.890625 L 0.671875 -4.796875 C 1.046875 -5.546875 1.484375 -5.765625 2.140625 -5.765625 C 2.90625 -5.765625 3.375 -5.296875 3.375 -4.546875 C 3.375 -3.5 2.875 -2.875 1.890625 -1.859375 L 0.375 -0.34375 L 0.375 0 L 4.3125 0 Z M 4.625 -1.59375 "/>
</g>
<g id="glyph-2-4">
<path d="M 0.859375 -4.96875 C 1.203125 -5.5 1.5625 -5.765625 2.15625 -5.765625 C 2.78125 -5.765625 3.1875 -5.4375 3.1875 -4.84375 C 3.1875 -4.03125 2.46875 -3.484375 1.796875 -3.484375 L 1.609375 -3.484375 L 1.609375 -3.109375 L 1.796875 -3.109375 C 2.765625 -3.109375 3.609375 -2.515625 3.609375 -1.640625 C 3.609375 -0.65625 3 -0.375 2.375 -0.375 C 2.140625 -0.375 2 -0.40625 1.5625 -0.625 C 1.21875 -0.8125 1.140625 -0.859375 0.984375 -0.859375 C 0.71875 -0.859375 0.59375 -0.625 0.59375 -0.421875 C 0.59375 -0.15625 0.8125 0.125 1.703125 0.125 C 3.15625 0.125 4.421875 -0.5625 4.421875 -1.9375 C 4.421875 -2.828125 3.765625 -3.34375 2.953125 -3.59375 L 2.953125 -3.625 C 3.59375 -4.03125 4.03125 -4.390625 4.03125 -5.078125 C 4.03125 -5.84375 3.453125 -6.421875 2.4375 -6.421875 C 1.609375 -6.421875 1 -5.96875 0.625 -5.09375 Z M 0.859375 -4.96875 "/>
</g>
<g id="glyph-2-5">
<path d="M 2.203125 -0.5 C 2.203125 -0.84375 1.984375 -1.140625 1.59375 -1.140625 C 1.21875 -1.140625 1 -0.84375 1 -0.515625 C 1 -0.171875 1.1875 0.078125 1.578125 0.078125 C 1.984375 0.078125 2.203125 -0.1875 2.203125 -0.5 Z M 5.03125 -0.5 C 5.03125 -0.84375 4.8125 -1.140625 4.421875 -1.140625 C 4.046875 -1.140625 3.8125 -0.84375 3.8125 -0.515625 C 3.8125 -0.171875 4 0.078125 4.40625 0.078125 C 4.8125 0.078125 5.03125 -0.1875 5.03125 -0.5 Z M 7.84375 -0.5 C 7.84375 -0.84375 7.625 -1.140625 7.234375 -1.140625 C 6.875 -1.140625 6.640625 -0.84375 6.640625 -0.515625 C 6.640625 -0.171875 6.828125 0.078125 7.234375 0.078125 C 7.625 0.078125 7.84375 -0.1875 7.84375 -0.5 Z M 7.84375 -0.5 "/>
</g>
<g id="glyph-2-6">
<path d="M 6.5625 -2.25 L 6.5625 -2.921875 L 0.625 -2.921875 L 0.625 -2.25 Z M 6.5625 -2.25 "/>
</g>
<g id="glyph-2-7">
<path d="M 4.15625 -5.46875 L 4.3125 -6.28125 L 1.578125 -6.28125 L 0.96875 -3.671875 L 1.09375 -3.53125 C 1.21875 -3.53125 1.28125 -3.53125 1.53125 -3.515625 C 2.90625 -3.4375 3.6875 -3.03125 3.6875 -1.78125 C 3.6875 -0.75 3.0625 -0.375 2.359375 -0.375 C 1.71875 -0.375 1.390625 -0.859375 0.984375 -0.859375 C 0.734375 -0.859375 0.59375 -0.65625 0.59375 -0.421875 C 0.59375 -0.0625 0.96875 0.125 1.734375 0.125 C 3.3125 0.125 4.421875 -0.640625 4.421875 -2.1875 C 4.421875 -3.75 3.1875 -4.21875 2.015625 -4.3125 L 1.546875 -4.34375 L 1.8125 -5.46875 Z M 4.15625 -5.46875 "/>
</g>
<g id="glyph-2-8">
<path d="M 6.65625 -9.1875 L 3.984375 0.921875 L 3.9375 0.921875 L 1.96875 -4.15625 L 1.765625 -4.15625 L 0.171875 -3.0625 L 0.34375 -2.78125 L 1.375 -3.1875 L 3.703125 2.640625 L 4.109375 2.640625 L 7.109375 -8.515625 L 8.265625 -8.515625 L 8.265625 -9.1875 Z M 6.65625 -9.1875 "/>
</g>
<g id="glyph-2-9">
<path d="M 6.234375 -4.71875 C 5.6875 -4.671875 5.109375 -4.65625 4.5 -4.65625 C 3.78125 -4.671875 3.234375 -4.703125 2.515625 -4.703125 C 1.5625 -4.703125 0.890625 -4.40625 0.484375 -3.53125 L 0.703125 -3.375 C 1.125 -3.890625 1.34375 -3.90625 2.40625 -3.90625 C 2.171875 -3.0625 1.890625 -2.484375 1.359375 -1.6875 C 0.875 -0.921875 0.75 -0.765625 0.3125 -0.140625 L 0.3125 0 L 1.25 0 C 1.671875 -0.671875 2.578125 -2.84375 2.796875 -3.890625 C 3.296875 -3.890625 3.734375 -3.875 4.234375 -3.875 C 3.8125 -2.765625 3.25 -1.53125 3.25 -0.671875 C 3.25 -0.265625 3.421875 0.09375 3.890625 0.09375 C 4.5 0.09375 4.921875 -0.203125 5.25 -0.6875 L 5.125 -0.859375 C 4.953125 -0.734375 4.78125 -0.609375 4.421875 -0.609375 C 4.109375 -0.609375 4.03125 -0.9375 4.03125 -1.203125 C 4.03125 -1.96875 4.5 -3.375 4.671875 -3.859375 C 4.921875 -3.84375 5.046875 -3.84375 5.203125 -3.84375 C 5.875 -3.84375 6.203125 -4.34375 6.25 -4.59375 Z M 6.234375 -4.71875 "/>
</g>
<g id="glyph-2-10">
<path d="M 3.5625 -1.21875 C 3.15625 -0.71875 2.609375 -0.5625 2.15625 -0.5625 C 1.484375 -0.5625 1.109375 -0.875 1.109375 -1.890625 L 1.109375 -2.015625 C 2.265625 -2.109375 4.03125 -2.609375 4.03125 -3.890625 C 4.03125 -4.65625 3.375 -4.78125 2.953125 -4.78125 C 1.390625 -4.78125 0.28125 -3.1875 0.28125 -1.640625 C 0.28125 -0.84375 0.578125 0.125 1.765625 0.125 C 2.421875 0.125 3.140625 -0.171875 3.734375 -1.0625 Z M 1.140625 -2.296875 C 1.328125 -3.296875 2.015625 -4.46875 2.75 -4.46875 C 3.046875 -4.46875 3.171875 -4.265625 3.171875 -3.921875 C 3.171875 -2.96875 2.265625 -2.375 1.140625 -2.296875 Z M 1.140625 -2.296875 "/>
</g>
<g id="glyph-3-0">
<path d="M 3.40625 -1.21875 L 3.15625 -1.21875 C 2.984375 -0.765625 2.90625 -0.609375 2.5 -0.609375 L 1.59375 -0.609375 L 1.046875 -0.578125 L 1.046875 -0.625 L 1.921875 -1.46875 C 2.703125 -2.234375 3.1875 -2.734375 3.1875 -3.421875 C 3.1875 -4.203125 2.59375 -4.671875 1.765625 -4.671875 C 1.046875 -4.671875 0.546875 -4.28125 0.328125 -3.625 L 0.515625 -3.546875 C 0.765625 -4 1.09375 -4.1875 1.59375 -4.1875 C 2.125 -4.1875 2.453125 -3.828125 2.453125 -3.328125 C 2.453125 -2.546875 2.078125 -2.125 1.296875 -1.34375 L 0.3125 -0.34375 L 0.3125 0 L 3.171875 0 Z M 3.40625 -1.21875 "/>
</g>
<g id="glyph-3-1">
<path d="M 0.578125 -3.625 C 0.8125 -4 1.125 -4.1875 1.53125 -4.1875 C 1.96875 -4.1875 2.28125 -3.953125 2.28125 -3.515625 C 2.28125 -2.9375 1.75 -2.578125 1.25 -2.578125 L 1.109375 -2.578125 L 1.109375 -2.25 L 1.265625 -2.25 C 1.984375 -2.25 2.578125 -1.84375 2.578125 -1.203125 C 2.578125 -0.484375 2.09375 -0.296875 1.671875 -0.296875 C 1.484375 -0.296875 1.40625 -0.328125 1.09375 -0.484375 C 0.828125 -0.625 0.765625 -0.671875 0.671875 -0.671875 C 0.453125 -0.671875 0.375 -0.46875 0.375 -0.328125 C 0.375 -0.125 0.515625 0.09375 1.203125 0.09375 C 2.265625 0.09375 3.234375 -0.375 3.234375 -1.40625 C 3.234375 -2.078125 2.734375 -2.453125 2.15625 -2.609375 L 2.15625 -2.640625 C 2.609375 -2.9375 2.953125 -3.203125 2.953125 -3.703125 C 2.953125 -4.265625 2.453125 -4.671875 1.71875 -4.671875 C 1.140625 -4.671875 0.65625 -4.359375 0.390625 -3.71875 Z M 0.578125 -3.625 "/>
</g>
<g id="glyph-3-2">
<path d="M 3.34375 -4.28125 L 3.34375 -4.578125 L 0.5625 -4.578125 L 0.328125 -3.421875 L 0.609375 -3.40625 C 0.78125 -3.859375 0.8125 -3.953125 1.25 -3.953125 L 2.765625 -3.953125 L 1.125 0.0625 L 1.734375 0.0625 Z M 3.34375 -4.28125 "/>
</g>
<g id="glyph-3-3">
<path d="M 3.75 -1.09375 L 3.75 -1.671875 L 2.984375 -1.671875 L 2.984375 -4.671875 L 2.484375 -4.671875 L 0.25 -1.625 L 0.25 -1.09375 L 2.296875 -1.09375 L 2.296875 0 L 2.984375 0 L 2.984375 -1.09375 Z M 2.296875 -1.671875 L 0.71875 -1.671875 L 0.71875 -1.71875 L 2.25 -3.828125 L 2.296875 -3.828125 Z M 2.296875 -1.671875 "/>
</g>
</g>
<clipPath id="clip-0">
<path clip-rule="nonzero" d="M 0 0 L 289.929688 0 L 289.929688 221.898438 L 0 221.898438 Z M 0 0 "/>
</clipPath>
<clipPath id="clip-1">
<path clip-rule="nonzero" d="M 0 0 L 289.929688 0 L 289.929688 221.898438 L 0 221.898438 Z M 0 0 "/>
</clipPath>
</defs>
<g clip-path="url(#clip-0)">
<path fill-rule="nonzero" fill="rgb(95.292664%, 95.684814%, 95.684814%)" fill-opacity="1" d="M -0.00390625 213.929688 L -0.00390625 7.96875 C -0.00390625 3.566406 3.566406 0 7.96875 0 L 281.960938 0 C 286.363281 0 289.933594 3.566406 289.933594 7.96875 L 289.933594 213.929688 C 289.933594 218.332031 286.363281 221.902344 281.960938 221.902344 L 7.96875 221.902344 C 3.566406 221.902344 -0.00390625 218.332031 -0.00390625 213.929688 Z M -0.00390625 213.929688 "/>
</g>
<path fill-rule="nonzero" fill="rgb(79.998779%, 87.057495%, 91.372681%)" fill-opacity="1" d="M 281.03125 110.949219 C 281.03125 54.589844 220.113281 8.902344 144.964844 8.902344 C 69.816406 8.902344 8.902344 54.589844 8.902344 110.949219 C 8.902344 167.308594 69.816406 213 144.964844 213 C 220.113281 213 281.03125 167.308594 281.03125 110.949219 Z M 281.03125 110.949219 "/>
<g clip-path="url(#clip-1)">
<path fill="none" stroke-width="0.79701" stroke-linecap="butt" stroke-linejoin="miter" stroke="rgb(0%, 0%, 0%)" stroke-opacity="1" stroke-miterlimit="10" d="M 136.06625 0.00078125 C 136.06625 56.360156 75.148281 102.047656 -0.00015625 102.047656 C -75.148594 102.047656 -136.062656 56.360156 -136.062656 0.00078125 C -136.062656 -56.358594 -75.148594 -102.05 -0.00015625 -102.05 C 75.148281 -102.05 136.06625 -56.358594 136.06625 0.00078125 Z M 136.06625 0.00078125 " transform="matrix(1, 0, 0, -1, 144.965, 110.95)"/>
</g>
<g fill="rgb(0%, 0%, 0%)" fill-opacity="1">
<use xlink:href="#glyph-0-0" x="107.672" y="29.805"/>
</g>
<g fill="rgb(0%, 0%, 0%)" fill-opacity="1">
<use xlink:href="#glyph-0-1" x="111.195636" y="29.805"/>
<use xlink:href="#glyph-0-2" x="117.26109" y="29.805"/>
<use xlink:href="#glyph-0-3" x="123.326544" y="29.805"/>
</g>
<g fill="rgb(0%, 0%, 0%)" fill-opacity="1">
<use xlink:href="#glyph-0-4" x="128.781089" y="29.805"/>
<use xlink:href="#glyph-0-5" x="134.846543" y="29.805"/>
<use xlink:href="#glyph-0-6" x="140.911997" y="29.805"/>
<use xlink:href="#glyph-0-7" x="149.999269" y="29.805"/>
<use xlink:href="#glyph-0-1" x="156.064723" y="29.805"/>
<use xlink:href="#glyph-0-0" x="162.130177" y="29.805"/>
</g>
<g fill="rgb(0%, 0%, 0%)" fill-opacity="1">
<use xlink:href="#glyph-0-8" x="165.81745" y="29.805"/>
</g>
<g fill="rgb(0%, 0%, 0%)" fill-opacity="1">
<use xlink:href="#glyph-1-0" x="174.305" y="29.805"/>
</g>
<path fill-rule="nonzero" fill="rgb(89.99939%, 100%, 89.99939%)" fill-opacity="1" stroke-width="0.79701" stroke-linecap="butt" stroke-linejoin="miter" stroke="rgb(0%, 0%, 0%)" stroke-opacity="1" stroke-miterlimit="10" d="M 102.046719 0.00078125 C 102.046719 41.332812 56.359219 74.836719 -0.00015625 74.836719 C -56.359531 74.836719 -102.047031 41.332812 -102.047031 0.00078125 C -102.047031 -41.33125 -56.359531 -74.835156 -0.00015625 -74.835156 C 56.359219 -74.835156 102.046719 -41.33125 102.046719 0.00078125 Z M 102.046719 0.00078125 " transform="matrix(1, 0, 0, -1, 144.965, 110.95)"/>
<g fill="rgb(0%, 0%, 0%)" fill-opacity="1">
<use xlink:href="#glyph-0-0" x="98.732" y="56.745"/>
</g>
<g fill="rgb(0%, 0%, 0%)" fill-opacity="1">
<use xlink:href="#glyph-0-2" x="102.310182" y="56.745"/>
<use xlink:href="#glyph-0-9" x="108.375636" y="56.745"/>
<use xlink:href="#glyph-0-10" x="111.408363" y="56.745"/>
<use xlink:href="#glyph-0-11" x="113.830181" y="56.745"/>
<use xlink:href="#glyph-0-4" x="119.895635" y="56.745"/>
<use xlink:href="#glyph-0-2" x="125.961089" y="56.745"/>
<use xlink:href="#glyph-0-3" x="132.026543" y="56.745"/>
</g>
<g fill="rgb(0%, 0%, 0%)" fill-opacity="1">
<use xlink:href="#glyph-0-4" x="137.481088" y="56.745"/>
<use xlink:href="#glyph-0-5" x="143.546542" y="56.745"/>
<use xlink:href="#glyph-0-6" x="149.611996" y="56.745"/>
<use xlink:href="#glyph-0-7" x="158.699268" y="56.745"/>
<use xlink:href="#glyph-0-1" x="164.764722" y="56.745"/>
<use xlink:href="#glyph-0-0" x="170.830176" y="56.745"/>
</g>
<g fill="rgb(0%, 0%, 0%)" fill-opacity="1">
<use xlink:href="#glyph-0-8" x="174.517448" y="56.745"/>
</g>
<g fill="rgb(0%, 0%, 0%)" fill-opacity="1">
<use xlink:href="#glyph-1-1" x="183.005" y="56.745"/>
</g>
<path fill-rule="nonzero" fill="rgb(100%, 98.979187%, 80.000305%)" fill-opacity="1" stroke-width="0.79701" stroke-linecap="butt" stroke-linejoin="miter" stroke="rgb(0%, 0%, 0%)" stroke-opacity="1" stroke-miterlimit="10" d="M 68.031094 0.00078125 C 68.031094 26.301562 37.574062 47.621875 -0.00015625 47.621875 C -37.574375 47.621875 -68.031406 26.301562 -68.031406 0.00078125 C -68.031406 -26.3 -37.574375 -47.624219 -0.00015625 -47.624219 C 37.574062 -47.624219 68.031094 -26.3 68.031094 0.00078125 Z M 68.031094 0.00078125 " transform="matrix(1, 0, 0, -1, 144.965, 110.95)"/>
<g fill="rgb(0%, 0%, 0%)" fill-opacity="1">
<use xlink:href="#glyph-0-10" x="120.567" y="79.601"/>
<use xlink:href="#glyph-0-4" x="122.988818" y="79.601"/>
<use xlink:href="#glyph-0-9" x="129.054272" y="79.601"/>
</g>
<g fill="rgb(0%, 0%, 0%)" fill-opacity="1">
<use xlink:href="#glyph-0-1" x="131.923363" y="79.601"/>
<use xlink:href="#glyph-0-12" x="137.988817" y="79.601"/>
<use xlink:href="#glyph-0-1" x="144.054271" y="79.601"/>
<use xlink:href="#glyph-0-0" x="150.119725" y="79.601"/>
</g>
<g fill="rgb(0%, 0%, 0%)" fill-opacity="1">
<use xlink:href="#glyph-0-8" x="153.806997" y="79.601"/>
</g>
<g fill="rgb(0%, 0%, 0%)" fill-opacity="1">
<use xlink:href="#glyph-1-2" x="162.294" y="79.601"/>
</g>
<path fill-rule="nonzero" fill="rgb(100%, 79.998779%, 79.998779%)" fill-opacity="1" stroke-width="0.79701" stroke-linecap="butt" stroke-linejoin="miter" stroke="rgb(0%, 0%, 0%)" stroke-opacity="1" stroke-miterlimit="10" d="M 40.820156 0.00078125 C 40.820156 15.028125 22.542812 27.211719 -0.00015625 27.211719 C -22.543125 27.211719 -40.820469 15.028125 -40.820469 0.00078125 C -40.820469 -15.030469 -22.543125 -27.214063 -0.00015625 -27.214063 C 22.542812 -27.214063 40.820156 -15.030469 40.820156 0.00078125 Z M 40.820156 0.00078125 " transform="matrix(1, 0, 0, -1, 144.965, 110.95)"/>
<g fill="rgb(0%, 0%, 0%)" fill-opacity="1">
<use xlink:href="#glyph-0-4" x="128.318" y="99.566"/>
<use xlink:href="#glyph-0-2" x="134.383454" y="99.566"/>
<use xlink:href="#glyph-0-9" x="140.448908" y="99.566"/>
<use xlink:href="#glyph-0-5" x="143.481635" y="99.566"/>
<use xlink:href="#glyph-0-0" x="149.547089" y="99.566"/>
</g>
<g fill="rgb(0%, 0%, 0%)" fill-opacity="1">
<use xlink:href="#glyph-0-2" x="153.125271" y="99.566"/>
<use xlink:href="#glyph-0-3" x="159.190725" y="99.566"/>
</g>
<g fill="rgb(0%, 0%, 0%)" fill-opacity="1">
<use xlink:href="#glyph-0-4" x="118.429" y="113.115"/>
<use xlink:href="#glyph-0-5" x="124.494454" y="113.115"/>
<use xlink:href="#glyph-0-6" x="130.559908" y="113.115"/>
<use xlink:href="#glyph-0-7" x="139.64718" y="113.115"/>
<use xlink:href="#glyph-0-1" x="145.712634" y="113.115"/>
<use xlink:href="#glyph-0-0" x="151.778088" y="113.115"/>
</g>
<g fill="rgb(0%, 0%, 0%)" fill-opacity="1">
<use xlink:href="#glyph-0-8" x="155.465361" y="113.115"/>
</g>
<g fill="rgb(0%, 0%, 0%)" fill-opacity="1">
<use xlink:href="#glyph-1-3" x="163.952" y="113.115"/>
</g>
<g fill="rgb(0%, 0%, 0%)" fill-opacity="1">
<use xlink:href="#glyph-2-0" x="122.481" y="125.406"/>
<use xlink:href="#glyph-2-1" x="127.412507" y="125.406"/>
</g>
<g fill="rgb(0%, 0%, 0%)" fill-opacity="1">
<use xlink:href="#glyph-2-2" x="131.507152" y="125.406"/>
<use xlink:href="#glyph-2-1" x="136.438659" y="125.406"/>
</g>
<g fill="rgb(0%, 0%, 0%)" fill-opacity="1">
<use xlink:href="#glyph-2-3" x="140.543266" y="125.406"/>
<use xlink:href="#glyph-2-1" x="145.474773" y="125.406"/>
</g>
<g fill="rgb(0%, 0%, 0%)" fill-opacity="1">
<use xlink:href="#glyph-2-4" x="149.579381" y="125.406"/>
<use xlink:href="#glyph-2-1" x="154.510888" y="125.406"/>
</g>
<g fill="rgb(0%, 0%, 0%)" fill-opacity="1">
<use xlink:href="#glyph-2-5" x="158.605533" y="125.406"/>
</g>
<g fill="rgb(0%, 0%, 0%)" fill-opacity="1">
<use xlink:href="#glyph-2-6" x="158.023" y="147.516"/>
<use xlink:href="#glyph-2-7" x="165.196101" y="147.516"/>
<use xlink:href="#glyph-2-1" x="170.127608" y="147.516"/>
</g>
<g fill="rgb(0%, 0%, 0%)" fill-opacity="1">
<use xlink:href="#glyph-2-6" x="174.222253" y="147.516"/>
<use xlink:href="#glyph-2-3" x="181.395353" y="147.516"/>
</g>
<g fill="rgb(0%, 0%, 0%)" fill-opacity="1">
<use xlink:href="#glyph-3-0" x="198.968" y="148.234"/>
</g>
<path fill="none" stroke-width="0.677" stroke-linecap="butt" stroke-linejoin="miter" stroke="rgb(0%, 0%, 0%)" stroke-opacity="1" stroke-miterlimit="10" d="M 0.00075 -0.0001875 L 3.653094 -0.0001875 " transform="matrix(1, 0, 0, -1, 198.968, 151.492)"/>
<g fill="rgb(0%, 0%, 0%)" fill-opacity="1">
<use xlink:href="#glyph-3-1" x="198.968" y="159.891"/>
</g>
<g fill="rgb(0%, 0%, 0%)" fill-opacity="1">
<use xlink:href="#glyph-2-1" x="203.818" y="154.063"/>
</g>
<g fill="rgb(0%, 0%, 0%)" fill-opacity="1">
<use xlink:href="#glyph-2-6" x="207.912645" y="154.063"/>
</g>
<g fill="rgb(0%, 0%, 0%)" fill-opacity="1">
<use xlink:href="#glyph-3-2" x="216.466" y="148.234"/>
</g>
<path fill="none" stroke-width="0.677" stroke-linecap="butt" stroke-linejoin="miter" stroke="rgb(0%, 0%, 0%)" stroke-opacity="1" stroke-miterlimit="10" d="M 0.0010625 -0.0001875 L 3.934656 -0.0001875 " transform="matrix(1, 0, 0, -1, 216.288, 151.492)"/>
<g fill="rgb(0%, 0%, 0%)" fill-opacity="1">
<use xlink:href="#glyph-3-3" x="216.288" y="159.891"/>
</g>
<g fill="rgb(0%, 0%, 0%)" fill-opacity="1">
<use xlink:href="#glyph-2-8" x="214.212" y="175.839"/>
</g>
<path fill="none" stroke-width="0.677" stroke-linecap="butt" stroke-linejoin="miter" stroke="rgb(0%, 0%, 0%)" stroke-opacity="1" stroke-miterlimit="10" d="M -0.00090625 -0.0001875 L 4.932687 -0.0001875 " transform="matrix(1, 0, 0, -1, 222.122, 166.992)"/>
<g fill="rgb(0%, 0%, 0%)" fill-opacity="1">
<use xlink:href="#glyph-2-3" x="222.122" y="176.536"/>
<use xlink:href="#glyph-2-1" x="227.053507" y="176.536"/>
</g>
<g fill="rgb(0%, 0%, 0%)" fill-opacity="1">
<use xlink:href="#glyph-2-9" x="231.148152" y="176.536"/>
<use xlink:href="#glyph-2-1" x="237.464466" y="176.536"/>
</g>
<g fill="rgb(0%, 0%, 0%)" fill-opacity="1">
<use xlink:href="#glyph-2-10" x="241.569073" y="176.536"/>
</g>
<g fill="rgb(0%, 0%, 0%)" fill-opacity="1">
<use xlink:href="#glyph-1-3" x="108.711" y="199.283"/>
</g>
<g fill="rgb(0%, 0%, 0%)" fill-opacity="1">
<use xlink:href="#glyph-1-4" x="119.281908" y="199.283"/>
</g>
<g fill="rgb(0%, 0%, 0%)" fill-opacity="1">
<use xlink:href="#glyph-1-2" x="130.16918" y="199.283"/>
</g>
<g fill="rgb(0%, 0%, 0%)" fill-opacity="1">
<use xlink:href="#glyph-1-4" x="140.270997" y="199.283"/>
</g>
<g fill="rgb(0%, 0%, 0%)" fill-opacity="1">
<use xlink:href="#glyph-1-1" x="151.158269" y="199.283"/>
</g>
<g fill="rgb(0%, 0%, 0%)" fill-opacity="1">
<use xlink:href="#glyph-1-4" x="162.372814" y="199.283"/>
</g>
<g fill="rgb(0%, 0%, 0%)" fill-opacity="1">
<use xlink:href="#glyph-1-0" x="173.260086" y="199.283"/>
</g>
</svg>
